<?xml version="1.0" encoding="UTF-8"?>
<svg width="159px" height="159px" viewBox="0 0 159 159" version="1.1" xmlns="http://www.w3.org/2000/svg" xmlns:xlink="http://www.w3.org/1999/xlink">
    <title>airflow</title>
    <g id="Page-1" stroke="none" stroke-width="1" fill="none" fill-rule="evenodd">
        <g id="airflow" transform="translate(0.628930, 0.625687)" fill-rule="nonzero">
            <path d="M2.54678638,157.374708 L78.1948804,79.8279412 C78.6768433,79.351729 78.7480618,78.5984804 78.3638924,78.0403685 C73.7638968,71.6177938 65.2749368,70.5039856 62.1296678,66.1882684 C52.8114526,53.4046579 50.4471796,46.1688031 46.4429413,46.617066 C46.1634399,46.6572267 45.9064259,46.7928136 45.7154726,47.0008399 L18.3890378,75.0156993 C2.66775009,91.1192383 0.40800343,126.614211 0,156.338455 C-0.00261859889,156.943466 0.362865847,157.489295 0.923260975,157.717267 C1.4836561,157.945239 2.12635885,157.809547 2.54678638,157.374497 L2.54678638,157.374708 Z" id="Path" fill="#017CEE"></path>
            <path d="M157.366729,155.461107 L79.8236766,79.8037051 C79.34709,79.3202234 78.5920994,79.2489423 78.0334549,79.6346844 C71.6112052,84.2376525 70.4974533,92.7243024 66.1819544,95.8697306 C53.3989908,105.188417 46.1635022,107.553021 46.6117426,111.557251 C46.6525026,111.835788 46.7880348,112.091756 46.9954971,112.282017 L75.0089388,139.609835 C91.1116626,155.332129 126.604839,157.59199 156.32779,158 C156.929641,158 157.471863,157.636448 157.699731,157.079373 C157.927599,156.522298 157.795823,155.882723 157.366308,155.461107 L157.366729,155.461107 Z" id="Path" fill="#00AD46"></path>
            <path d="M75.0091494,139.617632 C66.2064001,131.029191 62.1269282,114.039874 78.997161,79.0066525 C51.5716791,91.2642335 41.9609591,107.375781 46.687187,111.989497 L75.0091494,139.617632 Z" id="Path" fill="#04D659"></path>
            <path d="M155.450486,0.636068492 L79.8051317,78.1826241 C79.3220299,78.6582733 79.2506457,79.4123344 79.6359088,79.9701968 C84.238644,86.3927715 92.7221248,87.5065797 95.8701334,91.8225075 C105.188349,104.605907 107.555572,111.841762 111.557071,111.39371 C111.836586,111.35382 112.093574,111.218094 112.284118,111.009725 L139.610553,82.9948658 C155.332262,66.8915377 157.592009,31.3965653 158,1.67211036 C158.001015,1.06721689 157.634883,0.522217569 157.074516,0.294502018 C156.514149,0.0667864666 155.871662,0.201914493 155.450486,0.636068492 L155.450486,0.636068492 Z" id="Path" fill="#00C7D4"></path>
            <path d="M139.62404,82.9950767 C131.036033,91.7982715 114.047576,95.8777392 79.0133879,79.0066525 C91.270138,106.433733 107.38087,116.04494 111.994353,111.318472 L139.62404,82.9950767 Z" id="Path" fill="#11E1EE"></path>
            <path d="M0.628014112,2.54966902 L78.1706455,78.1988517 C78.6468336,78.6808391 79.400044,78.7520611 79.9581276,78.3678725 C86.3803772,73.7651152 87.4941291,65.2782544 91.809628,62.1328261 C104.592592,52.8141394 111.82808,50.4497466 111.37984,46.4453057 C111.339004,46.1660711 111.203533,45.9093252 110.996085,45.7180111 L82.9826437,18.3901933 C66.8801305,2.66768839 31.3867437,0.407827367 1.66379287,0 C1.05761186,-0.00369277815 0.510320399,0.362277574 0.282156002,0.923919987 C0.0539916049,1.4855624 0.190992284,2.12955112 0.628014112,2.54966902 Z" id="Path" fill="#E43921"></path>
            <path d="M82.996131,18.3927222 C91.7988803,26.9813746 95.8783523,43.9706914 79.0079086,79.0066525 C106.433601,66.7492822 116.044321,50.6352059 111.318304,46.0240186 L82.996131,18.3927222 Z" id="Path" fill="#FF7557"></path>
            <path d="M18.3890378,75.0184391 C26.9772555,66.2150334 43.9657126,62.135355 78.9999006,79.0066525 C66.7431505,51.5797827 50.6324186,41.9685762 46.018725,46.6948324 L18.3890378,75.0184391 Z" id="Path" fill="#0CB6FF"></path>
            <path d="M75.6291415,78.9931646 C75.6291415,80.8608137 77.1430937,82.3748425 79.0106483,82.3748425 C80.8782029,82.3748425 82.392155,80.8608137 82.392155,78.9931646 C82.392155,77.1255155 80.8782029,75.6114867 79.0106483,75.6114867 C77.1430937,75.6114867 75.6291415,77.1255155 75.6291415,78.9931646 L75.6291415,78.9931646 Z" id="Path" fill="#4A4848"></path>
        </g>
    </g>
</svg>