<?xml version="1.0" encoding="UTF-8"?>
<svg width="214px" height="159px" viewBox="0 0 214 159" version="1.1" xmlns="http://www.w3.org/2000/svg" xmlns:xlink="http://www.w3.org/1999/xlink">
    <title>druid</title>
    <g id="Page-1" stroke="none" stroke-width="1" fill="none" fill-rule="evenodd">
        <g id="druid" transform="translate(0.396000, 0.534409)" fill="#2AEEF8" fill-rule="nonzero">
            <path d="M23.4180044,48.1964018 L6.93048406,48.1964018 C3.10658104,48.1964018 0,44.8514391 0,40.7303754 C0,36.6060461 3.10658104,33.2643489 6.93048406,33.2643489 L23.4180044,33.2643489 C27.2462614,33.2643489 30.343046,36.6060461 30.343046,40.7303754 C30.343046,44.8514391 27.2462614,48.1964018 23.4180044,48.1964018 Z M114.409045,124.732153 L33.2123338,124.732153 C29.3786343,124.732153 26.2818498,121.381747 26.2818498,117.258507 C26.2818498,113.134177 29.3786343,109.791392 33.2123338,109.791392 L114.409045,109.791392 C123.391686,109.91026 132.242759,107.625336 140.045414,103.173307 C150.079213,97.248598 156.675528,92.1108747 156.675528,75.7822754 C157.244657,68.334598 154.930745,60.9529142 150.21201,55.1628063 C146.328921,51.2718704 141.106421,49.0108508 135.61195,48.8418827 L44.3455192,48.8418827 C40.5216162,48.8418827 37.4150351,45.5001855 37.4150351,41.3758563 C37.4150351,37.2515271 40.5216162,33.9032989 44.3455192,33.9032989 L135.479153,33.9032989 C144.565957,34.060043 153.261989,37.8382289 159.906198,44.5118268 C167.333038,52.9183179 171.186331,64.2561413 170.580036,75.8279924 C170.580036,102.215427 155.662133,111.031194 146.746224,116.316954 C136.913195,121.962213 125.746545,124.868143 114.409045,124.732153 Z" id="Shape"></path>
            <path d="M129.766701,157.954283 L98.8151835,157.954283 C94.6658188,157.954283 91.3099711,154.731232 91.3099711,150.750585 C91.3099711,146.776469 94.6658188,143.553418 98.8151835,143.553418 L129.766701,143.553418 C155.014475,143.553418 197.865483,127.704848 198.212715,68.4218336 C199.239171,50.9796981 190.944796,34.2472651 176.211938,24.0088273 C166.654674,17.5949623 155.369395,14.246704 143.860609,14.410428 L50.1657325,14.410428 C46.0174563,14.410428 42.6605201,11.1873774 42.6605201,7.2056418 C42.6605201,3.23152568 46.0163678,0.00847506012 50.1657325,0.00847506012 L143.861697,0.00847506012 C158.485244,-0.216355232 172.827723,4.03689764 184.964573,12.1975061 C203.743387,25.1789656 214.382393,46.4210571 213.21552,68.6047017 C212.868289,129.966753 169.716855,157.954283 129.766701,157.954283 L129.766701,157.954283 Z M75.5082062,158 L59.4637056,158 C55.3165179,158 51.9584932,154.779126 51.9584932,150.798479 C51.9584932,146.824363 55.3165179,143.601313 59.4637056,143.601313 L75.5071177,143.601313 C79.6564824,143.601313 83.0145074,146.824363 83.0145074,150.798479 C83.0155956,154.779126 79.6564824,158 75.5082062,158 Z" id="Shape"></path>
        </g>
    </g>
</svg>