<?xml version="1.0" encoding="UTF-8"?>
<svg width="158px" height="158px" viewBox="0 0 158 158" version="1.1" xmlns="http://www.w3.org/2000/svg" xmlns:xlink="http://www.w3.org/1999/xlink">
    <title>duckdb</title>
    <g id="Page-1" stroke="none" stroke-width="1" fill="none" fill-rule="evenodd">
        <g id="duckdb" transform="translate(-0.000000, 0.000195)" fill="#FFEF00" fill-rule="nonzero">
            <path d="M79,0 C35.2767296,0 0,35.4487179 0,79 C0,122.551282 35.2767296,158 79,158 C122.72327,158 158,122.551282 158,79 C158,35.4487179 122.72327,0 79,0 Z M62.6037736,111.916667 C44.7169811,111.916667 29.8113208,97.2307692 29.8113208,79 C29.8113208,60.7692308 44.7169811,46.0833333 62.6037736,46.0833333 C80.490566,46.0833333 95.3962264,60.7692308 95.3962264,79 C95.3962264,97.2307692 80.490566,111.916667 62.6037736,111.916667 Z M121.232704,90.6474359 L105.830189,90.6474359 L105.830189,67.3525641 L121.232704,67.3525641 C127.691824,67.3525641 133.157233,72.4166667 133.157233,79 C133.157233,85.5833333 127.691824,90.6474359 121.232704,90.6474359 Z" id="Shape"></path>
        </g>
    </g>
</svg>