<?xml version="1.0" encoding="UTF-8"?>
<svg width="143px" height="158px" viewBox="0 0 143 158" version="1.1" xmlns="http://www.w3.org/2000/svg" xmlns:xlink="http://www.w3.org/1999/xlink">
    <title>elasticsearch</title>
    <g id="Page-1" stroke="none" stroke-width="1" fill="none" fill-rule="evenodd">
        <g id="elasticsearch" transform="translate(0.458409, 0.000195)" fill-rule="nonzero">
            <path d="M66.3474077,44.3260664 L8.05816163,44.3260664 L8.05816163,44.4197791 L112.922577,44.4197791 C124.449228,44.4197791 134.851328,39.1718728 141.786062,30.9251627 C127.354319,12.0889273 104.582154,5.61328766e-15 79.0923232,5.61328766e-15 C64.6605807,5.61328766e-15 51.0722516,3.93592986 39.3581748,10.683238 C50.9785389,19.3985111 60.2560878,31.0188752 66.3474077,44.3260664 Z" id="Path" fill="#EFBF1B"></path>
            <path d="M141.973487,126.793167 C135.038754,118.640169 124.824079,113.485976 113.297427,113.485976 L7.96444911,113.485976 L7.96444911,113.579688 L67.6593841,113.579688 C62.0366273,127.355442 52.9465038,139.256944 41.6072775,148.534493 C27.925236,141.224909 16.6797222,129.885683 9.27642573,116.109929 C22.583617,141.037484 48.8231489,157.999467 79.0923232,157.999467 C104.769579,158.09318 127.541745,145.816827 141.973487,126.793167 Z" id="Path" fill="#40BEB0"></path>
            <path d="M69.3462113,101.209623 L103.926166,101.209623 C116.202518,101.209623 126.136055,91.2760861 126.229768,78.9997336 C126.229768,66.8170938 116.296231,56.7898441 104.019878,56.7898441 L69.1587861,56.7898441 C70.8456131,63.4434397 71.8764518,70.8467362 71.8764518,78.9997336 C71.8764518,87.152731 70.9393258,94.5560276 69.3462113,101.209623 Z" id="Path" fill="#0AA5DE"></path>
            <path d="M71.8764518,78.9997336 C71.8764518,70.7530235 70.8456131,63.4434397 69.1587861,56.7898441 L3.18510568,56.7898441 C-1.06170189,71.2919212 -1.06170189,86.7075461 3.18510568,101.209623 L69.3462113,101.209623 C70.9393258,94.5560276 71.8764518,87.152731 71.8764518,78.9997336 L71.8764518,78.9997336 Z" id="Path" fill="#231F20"></path>
            <path d="M39.3581748,10.683238 C25.8635584,18.5550975 14.8991826,30.2691743 7.96444911,44.3260664 L66.3474077,44.3260664 C60.2560878,31.0188752 50.9785389,19.3985111 39.3581748,10.683238 Z" id="Path" fill="#D7A229"></path>
            <path d="M41.7009901,148.534493 C53.0402164,139.350657 62.1303399,127.355442 67.7530968,113.579688 L8.05816163,113.579688 C8.43301216,114.423102 8.9015752,115.266515 9.37013825,116.109929 C16.6797221,129.885683 27.9252358,141.224909 41.7009901,148.534493 Z" id="Path" fill="#009B8F"></path>
        </g>
    </g>
</svg>