<?xml version="1.0" encoding="UTF-8"?>
<svg width="177px" height="159px" viewBox="0 0 177 159" version="1.1" xmlns="http://www.w3.org/2000/svg" xmlns:xlink="http://www.w3.org/1999/xlink">
    <title>hive</title>
    <g id="Page-1" stroke="none" stroke-width="1" fill="none" fill-rule="evenodd">
        <g id="hive" transform="translate(0.982277, 0.600195)" fill-rule="nonzero">
            <path d="M105.056946,124.059259 L105.056946,158 L113.347069,158 L113.347069,142.395062 L115.102625,142.395062 L115.102625,158 L123.490279,158 L123.490279,124.059259 L115.102625,124.059259 L115.102625,136.640741 L113.347069,136.640741 L113.347069,124.059259 L105.056946,124.059259 L105.056946,124.059259 Z M133.926082,124.059259 L125.83102,124.059259 L125.83102,158 L133.926082,158 L133.926082,124.059259 L133.926082,124.059259 Z M135.193983,124.059259 L141.63102,158 L151.286576,158 L157.723613,124.059259 L149.140897,124.059259 L146.995218,138.591358 C146.800156,139.176543 146.214971,139.176543 146.11744,138.591358 L143.971761,124.059259 L135.193983,124.059259 Z M175.571761,124.059259 L159.479168,124.059259 L159.479168,158 L175.571761,158 L175.571761,149.124691 L166.598921,149.02716 L166.598921,145.223457 L170.890279,145.223457 L170.890279,136.348148 L166.598921,136.348148 L166.598921,132.934568 L175.571761,132.934568 L175.571761,124.059259 L175.571761,124.059259 Z" id="Shape" fill="#000000"></path>
            <path d="M88.5742299,21.0666667 C87.2087978,17.3604938 40.4915138,-0.780246914 39.9063286,1.17037037 C31.3236126,3.41358025 27.8125015,13.2641975 21.9606496,19.5061728 L8.89151383,18.7259259 C3.13719284,26.1382716 0.113736055,33.745679 2.1618842,41.5481481 C9.57422988,51.691358 18.1569459,60.2740741 23.4236126,72.8555556 C23.8137361,78.8049383 49.0742299,73.4407407 54.5359583,72.2703704 C47.1236126,77.537037 40.6865756,85.7296296 43.5149706,109.42963 C46.0507731,120.548148 47.8063286,132.934568 70.1408966,145.418519 C73.0668225,147.076543 79.2112669,149.02716 82.9174398,150.392593 C86.5260817,152.050617 90.7199089,152.733333 102.618674,149.124691 C109.543366,146.198765 116.955711,144.345679 123.685341,141.419753 L115.590279,141.809877 C104.471761,142.004938 95.7915138,142.882716 93.1581805,139.761728 L82.9174398,121.91358 L88.8668225,110.307407 C97.1569459,111.185185 99.8878101,117.914815 107.202625,120.450617 L115.785341,114.111111 C140.753242,128.838272 150.70139,104.748148 153.529785,86.0222222 C153.237193,78.4148148 136.949539,88.4604938 138.022378,84.8518519 C138.412501,76.6592593 131.682872,65.9308642 127.391514,57.5432099 L132.365588,38.1345679 C134.608798,36.0864198 121.832255,14.5320988 111.396452,11.8987654 C102.326082,9.46049383 88.5742299,21.0666667 88.5742299,21.0666667 Z" id="Path" fill="#FDEE21"></path>
            <path d="M129.634724,62.2246914 C129.732255,64.2728395 129.732255,66.808642 129.927316,68.3691358 C129.927316,69.5395062 128.952008,69.637037 128.269292,69.8320988 L133.145835,71.5876543 C134.121143,73.245679 134.90139,74.8061728 135.681637,76.4641975 C136.559415,80.462963 135.876699,80.5604938 135.291514,80.8530864 C133.535958,80.8530864 131.780403,80.8530864 130.122378,80.5604938 C130.902625,80.9506173 131.000156,81.2432099 131.097687,81.7308642 C131.195218,82.608642 130.610032,83.8765432 129.634724,85.1444444 C131.097687,85.9246914 133.73102,86.7049383 135.681637,87.4851852 L137.924847,82.5111111 C136.852008,75.2938272 133.828551,68.6617284 129.634724,62.2246914 L129.634724,62.2246914 Z M138.705094,86.6074074 C141.435958,87.7777778 145.142131,87.3876543 150.311267,84.754321 C151.091514,84.1691358 151.77423,84.5592593 150.408798,85.437037 C143.581637,91.4839506 140.363119,88.4604938 138.705094,86.6074074 L138.705094,86.6074074 Z" id="Shape" fill="#C8C037"></path>
            <path d="M150.798921,83.9740741 C151.579168,85.5345679 151.091514,86.7049383 150.798921,88.0703704 C149.921143,94.7024691 147.872995,99.8716049 143.87423,105.333333 C130.805094,126.4 117.540897,113.233333 107.007563,104.650617 L102.618674,115.574074 C102.423613,116.549383 101.448304,117.232099 108.275464,120.255556 L115.200156,115.379012 C141.728551,135.47037 160.454477,87.0950617 150.798921,83.9740741 L150.798921,83.9740741 Z M110.226082,102.797531 C108.470526,102.895062 103.106329,104.748148 102.911267,105.820988 L105.349539,102.212346 L110.226082,102.797531 Z M106.714971,80.462963 C107.007563,80.462963 108.568057,80.8530864 108.470526,80.7555556 C108.275464,80.6580247 108.470526,82.9987654 108.95818,84.1691358 L107.007563,88.362963 C110.713736,84.1691358 116.468057,84.3641975 121.832255,83.8765432 L119.296452,82.3160494 C119.784106,80.8530864 119.198921,79.682716 119.00386,78.4148148 L106.714971,80.462963 Z M115.785341,67.8814815 C111.884106,69.0518519 108.080403,71.1 105.5446,75.2938272 C107.495218,68.3691358 107.885341,68.6617284 108.470526,68.2716049 C111.20139,67.0037037 113.4446,67.7839506 115.785341,67.8814815 Z" id="Shape" fill="#C8C037"></path>
            <path d="M94.7186743,149.124691 C89.939662,154.391358 79.3087978,148.734568 70.53102,145.808642 C48.0989212,131.569136 43.7100324,118.109877 43.4174398,104.94321 C42.2470694,86.0222222 48.0989212,75.0987654 55.4137361,72.4654321 C50.5371928,81.8283951 48.293983,98.6037037 50.5371928,111.087654 C52.3902793,118.012346 52.3902793,129.716049 63.9964521,136.055556 C69.6532422,139.274074 68.1902793,141.712346 71.993983,144.735802 C76.1878101,148.051852 87.9890447,151.17284 94.7186743,149.124691 Z M101.838427,61.9320988 C93.7433657,50.5209877 82.4297854,46.2296296 69.6532422,45.7419753 C72.1890447,44.8641975 74.822378,44.4740741 77.3581805,43.2061728 C77.9433657,42.5234568 77.748304,41.3530864 77.5532422,40.182716 C65.2643533,36.9641975 57.4618842,32.9654321 47.6112669,29.2592593 L74.139662,35.6962963 C92.085341,36.3790123 90.5248472,40.8654321 101.838427,61.9320988 Z" id="Shape" fill="#FCF6A0"></path>
            <path d="M110.518674,56.3728395 C104.569292,47.8876543 98.8149706,37.5493827 90.9149706,30.917284 C71.993983,22.4320988 53.1705262,16.0925926 31.2260817,10.3382716 L38.248304,1.3654321 C61.5581805,6.72962963 83.4050941,15.6049383 103.008798,30.2345679 C106.422378,38.6222222 108.568057,47.0098765 110.518674,56.3728395 L110.518674,56.3728395 Z M122.514971,41.3530864 C122.514971,41.3530864 119.198921,33.8432099 117.540897,31.0148148 C113.737193,26.8209877 111.884106,19.0185185 104.081637,15.3123457 C106.519909,15.9950617 108.177934,15.2148148 113.152008,19.7012346 L121.052008,34.6234568 L122.514971,41.3530864 Z" id="Shape" fill="#FCF6A0"></path>
            <path d="M126.708798,54.3246914 C127.489045,47.7901235 128.952008,37.4518519 127.293983,33.2580247 C122.612501,27.0160494 117.93102,20.4814815 113.249539,14.5320988 C112.469292,13.8493827 111.884106,12.7765432 111.298921,12.0938272 C117.93102,13.8493827 124.855711,18.4333333 134.121143,36.5740741 L126.708798,54.3246914 Z" id="Path" fill="#FCF6A0"></path>
            <path d="M98.8149706,55.1049383 C96.1816373,53.0567901 93.8408966,45.7419753 89.8421311,44.1814815 C86.1359583,43.8888889 84.7705262,42.7185185 79.893983,43.6938272 C81.6495385,42.8160494 83.3075632,41.645679 85.1606496,41.0604938 C86.4285509,40.7679012 87.5989212,41.0604938 88.8668225,41.2555556 C89.1594151,41.1580247 89.3544768,40.962963 89.2569459,40.6703704 C84.3804027,37.6469136 74.3347237,37.6469136 67.5075632,35.891358 C75.4075632,36.1839506 84.0878101,35.6962963 90.0371928,37.6469136 C94.8162052,41.8407407 96.376699,49.8382716 98.8149706,55.1049383 L98.8149706,55.1049383 Z M113.249539,19.7012346 C114.322378,19.7987654 120.17423,29.0641975 120.466822,30.6246914 C120.954477,34.0382716 122.124847,37.7444444 122.514971,41.3530864 C121.539662,37.9395062 120.466822,34.5259259 119.198921,31.2098765 C118.808798,30.2345679 117.833489,28.1864198 115.102625,25.162963 C113.834724,23.017284 113.542131,21.3592593 113.249539,19.7012346 L113.249539,19.7012346 Z M133.145835,70.3197531 L130.610032,70.3197531 L133.340897,71.0024691 L133.145835,70.3197531 Z M115.980403,67.8814815 C113.4446,67.5888889 110.908798,67.491358 108.372995,68.0765432 C107.300156,69.4419753 107.300156,70.9049383 106.812501,72.1728395 C109.835958,68.7592593 111.10386,68.5641975 115.980403,67.8814815 Z M150.506329,85.3395062 C149.140897,86.4123457 148.945835,87.4851852 144.752008,88.7530864 C141.728551,89.4358025 139.972995,88.2654321 138.607563,86.6074074 C140.753242,87.1925926 141.143366,88.8506173 146.897687,86.9975309 L150.506329,85.3395062 L150.506329,85.3395062 Z M137.924847,86.0222222 C136.949539,88.8506173 135.779168,91.5814815 134.706329,94.2148148 C132.072995,97.3358025 133.243366,95.5802469 129.2446,100.261728 C130.512501,98.3111111 132.170526,96.4580247 132.950773,94.4098765 C133.535958,93.0444444 134.316205,91.6790123 134.608798,90.508642 C133.535958,90.0209877 131.48781,89.9234568 131.195218,90.1185185 C127.684106,92.1666667 127.098921,94.3123457 125.050773,96.4580247 C126.513736,94.117284 127.781637,91.4839506 129.537193,89.3382716 C129.732255,89.045679 131.000156,89.045679 131.780403,88.8506173 C130.512501,88.6555556 128.269292,88.1679012 128.07423,88.2654321 C125.83102,88.8506173 124.563119,90.8012346 122.807563,92.0691358 C124.075464,90.3135802 125.148304,88.4604938 126.708798,86.9 C126.90386,86.7049383 131.097687,87.0950617 133.243366,87.9728395 L133.243366,88.8506173 L134.511267,89.3382716 L135.486576,86.9975309 L137.924847,86.0222222 Z M110.323613,102.797531 C109.738427,102.602469 104.764353,101.919753 104.764353,102.114815 C102.813736,103.480247 102.618674,104.748148 102.618674,105.918519 C105.739662,102.797531 105.642131,102.797531 110.323613,102.797531 L110.323613,102.797531 Z M106.519909,80.3654321 C106.519909,80.3654321 110.128551,79.8777778 110.03102,80.1703704 C109.738427,81.4382716 110.518674,84.4617284 110.518674,83.9740741 L108.470526,85.6320988 C112.664353,83.4864198 117.150773,83.9740741 121.637193,83.5839506 C121.637193,83.5839506 117.833489,82.5111111 118.126082,82.5111111 C119.00386,82.4135802 117.93102,78.6098765 117.638427,78.5123457 C118.321143,78.3172839 119.10139,78.1222222 119.784106,77.9271605 C114.322378,76.5617284 111.20139,77.3419753 106.519909,80.3654321 L106.519909,80.3654321 Z" id="Shape" fill="#000000"></path>
            <path d="M137.437193,83.0962963 L136.656946,83.4864198 C136.559415,81.145679 134.023613,81.3407407 131.975464,81.3407407 L130.219909,80.9506173 C130.707563,81.4382716 132.365588,81.4382716 131.682872,82.4135802 C131.097687,82.7061728 130.902625,83.9740741 130.610032,85.0469136 L129.634724,85.0469136 C131.292748,85.7296296 132.853242,86.217284 134.608798,86.9975309 L135.681637,87.1925926 L138.21744,85.8271605 L137.437193,83.0962963 L137.437193,83.0962963 Z" id="Path" fill="#000000"></path>
            <path d="M113.737193,81.4382716 C113.347069,80.6580247 111.298921,80.7555556 110.908798,81.2432099 C110.518674,81.6333333 110.908798,84.3641975 111.298921,83.8765432 C111.981637,83.291358 112.859415,83.0962963 113.834724,83.0962963 C114.029785,82.608642 113.932255,82.0234568 113.737193,81.4382716 Z M133.145835,85.437037 C133.340897,85.3395062 133.73102,83.9740741 133.633489,83.5839506 C133.340897,82.608642 131.48781,82.8037037 131.48781,82.8037037 C131.000156,83.0962963 130.610032,84.5592593 130.805094,85.0469136 C130.902625,85.5345679 132.853242,85.6320988 133.145835,85.437037 L133.145835,85.437037 Z" id="Shape" fill="#FFFFFF"></path>
            <path d="M52.6828719,131.959259 L53.8532422,132.05679 C60.8754645,135.47037 72.4816373,140.639506 89.3544768,137.908642 L91.9878101,142.102469 C84.5754645,145.711111 76.5779336,144.833333 69.1655879,145.125926 L52.6828719,131.959259 Z M42.539662,104.553086 L46.0507731,119.377778 C55.5112669,125.32716 71.7013904,132.05679 85.1606496,131.471605 L82.1371928,124.644444 C54.048304,118.792593 51.7075632,111.185185 42.539662,104.553086 Z M51.3174398,74.2209877 C53.0729953,85.7296296 55.3162052,94.4098765 65.3618842,101.724691 C71.5063286,106.11358 77.5532422,110.502469 84.9655879,114.111111 C84.9655879,114.111111 84.2828719,117.524691 83.7952175,117.42716 C61.7532422,114.988889 45.6606496,96.7506173 43.7100324,88.362963 C45.5631188,82.0234568 48.293983,78.0246914 51.3174398,74.2209877 L51.3174398,74.2209877 Z M61.8507731,67.6864198 C64.776699,80.462963 71.7989212,93.337037 78.7236126,105.040741 C81.2594151,108.259259 81.9421311,109.722222 85.8433657,111.67284 C91.1100324,113.330864 94.9137361,112.940741 98.7174398,112.648148 C97.6446003,110.697531 96.7668225,108.649383 95.4989212,106.796296 C86.9162052,99.9691358 90.8174398,93.7271605 93.1581805,89.8259259 C88.3791682,88.6555556 82.039662,86.0222222 81.1618842,82.608642 C79.7964521,71.6851852 80.576699,68.2716049 81.9421311,62.6148148 C75.5050941,63.9802469 68.8729953,65.345679 61.8507731,67.6864198 L61.8507731,67.6864198 Z" id="Shape" fill="#000000"></path>
            <path d="M38.0532422,0 C35.9075632,1.3654321 33.8594151,3.41358025 31.6162052,5.65679012 C27.9100324,9.46049383 25.4717607,13.1666667 21.7655879,15.8975309 C20.985341,16.5802469 18.9371928,17.5555556 16.3038595,17.7506173 C15.0359583,17.8481481 14.2557114,18.0432099 12.0125015,17.7506173 C9.96435334,16.6777778 8.11126692,17.3604938 6.2581805,19.6037037 C4.21003235,22.5296296 1.57669902,28.0888889 0.503859513,31.6975309 C-1.73935036,40.5728395 3.91743976,47.9851852 9.37916815,53.6419753 C14.2557114,58.3234568 16.9865756,61.3469136 18.9371928,65.6382716 C20.4001558,68.4666667 21.5705262,72.2703704 22.7408966,75.0012346 C23.13102,75.8790123 23.13102,75.8790123 24.3013904,76.0740741 C26.8371928,76.6592593 30.348304,76.6592593 33.4692916,76.854321 C34.8347237,76.854321 36.6878101,76.854321 38.4433657,76.6592593 C40.8816373,76.1716049 43.7100324,75.7814815 46.0507731,74.9037037 C48.3915138,74.3185185 50.439662,73.5382716 52.2927484,72.8555556 C52.0976867,73.6358025 50.2446003,74.4160494 49.5618842,75.4888889 C43.222378,84.5592593 41.4668225,92.654321 42.6371928,105.333333 C43.222378,110.990123 44.5878101,115.671605 46.5384274,121.035802 C47.4162052,123.474074 49.3668225,127.375309 51.122378,129.911111 C56.5841064,137.616049 68.6779336,147.369136 85.5507731,151.17284 C88.476699,151.562963 91.7927484,151.367901 95.0112669,150.490123 C103.30139,147.954321 120.369292,142.004938 120.369292,142.004938 C120.369292,142.004938 105.252008,143.27284 98.4248472,142.590123 C96.8643533,142.297531 95.1087978,142.297531 93.9384274,141.12716 C93.7433657,140.932099 93.0606496,139.566667 93.548304,139.469136 C94.1334891,139.469136 95.8890447,138.78642 98.522378,138.493827 C92.8655879,137.908642 92.9631188,137.908642 92.5729953,136.835802 C91.7927484,134.885185 90.9149706,133.032099 89.939662,131.179012 C92.3779336,131.374074 97.9371928,131.666667 99.7902793,129.81358 C99.7902793,129.81358 96.5717607,130.203704 93.6458348,129.81358 C92.6705262,129.716049 91.0125015,129.130864 90.5248472,128.935802 C89.2569459,128.448148 88.1841064,128.253086 87.8915138,127.960494 C87.4038595,126.790123 87.1112669,126.4 86.6236126,124.937037 C85.8433657,122.888889 85.8433657,120.645679 85.648304,118.597531 C87.5013904,120.938272 89.939662,122.888889 93.0606496,123.864198 C93.0606496,123.766667 97.1569459,125.619753 100.180403,124.644444 L100.765588,124.449383 C100.765588,124.546914 98.8149706,124.644444 98.0347237,124.254321 C91.9878101,121.718519 91.1100324,119.475309 90.1347237,118.304938 L87.5013904,114.403704 C88.2816373,112.84321 88.7692916,112.745679 89.7446003,112.745679 C92.8655879,113.135802 94.3285509,113.330864 96.1816373,112.940741 C97.4495385,115.671605 97.839662,118.304938 100.765588,120.255556 C110.616205,123.181481 112.761884,119.377778 115.200156,116.061728 C122.319909,121.328395 133.926082,122.888889 141.923613,116.159259 C152.164353,104.358025 155.382872,85.7296296 154.505094,84.6567901 C153.237193,82.5111111 151.579168,80.2679012 150.116205,80.5604938 C144.947069,81.9259259 143.093983,84.5592593 138.022378,83.9740741 C138.607563,83.9740741 139.680403,83.9740741 139.680403,83.8765432 C140.070526,79.5851852 139.680403,77.537037 139.485341,77.1469136 C137.924847,73.7333333 135.876699,70.1246914 134.511267,67.491358 C134.121143,66.9061728 133.048304,62.7123457 131.292748,61.054321 C130.512501,60.3716049 128.659415,58.7135802 128.659415,58.7135802 L128.464353,60.5666667 C128.464353,60.5666667 129.2446,60.6641975 129.439662,61.8345679 C130.512501,66.1259259 135.876699,76.3666667 136.266822,76.854321 C138.21744,79.9753086 136.461884,83.7790123 137.924847,85.9246914 C138.022378,86.217284 140.850773,85.9246914 143.093983,86.0222222 C146.702625,85.2419753 146.507563,83.6814815 149.628551,83.3888889 C151.77423,83.1938272 151.969292,87.1925926 151.871761,87.4851852 C151.481637,91.8740741 150.116205,96.8481481 148.165588,101.52963 C143.971761,109.624691 139.290279,116.939506 132.56065,117.914815 C124.368057,119.377778 120.17423,115.769136 115.785341,113.525926 L114.127316,114.988889 C108.372995,120.74321 101.545835,120.158025 98.8149706,112.745679 C97.4495385,109.819753 95.5964521,108.064198 94.0359583,105.625926 L85.8433657,111.575309 C85.1606496,112.940741 84.2828719,115.183951 83.3075632,117.622222 C82.6248472,119.377778 82.039662,122.303704 82.039662,124.741975 C80.9668225,126.497531 85.648304,133.812346 88.6717607,138.201235 C89.5495385,139.469136 91.2075632,141.809877 91.2075632,141.907407 C91.7927484,143.467901 93.0606496,144.833333 93.1581805,144.930864 C98.7174398,152.148148 86.2334891,150.490123 83.6001558,150.002469 C78.5285509,149.222222 73.5544768,147.076543 68.8729953,144.248148 C68.5804027,144.053086 68.2878101,143.955556 68.0927484,143.760494 C62.5334891,140.249383 57.4618842,135.762963 53.0729953,131.374074 C50.439662,128.448148 48.0013904,122.401235 46.148304,118.207407 C43.4174398,107.966667 39.5162052,90.2160494 50.1470694,76.7567901 C50.8297854,75.9765432 51.5125015,74.708642 52.1952175,74.4160494 C55.3162052,72.2703704 58.8273163,70.8074074 62.4359583,70.0271605 L62.0458348,67.6864198 C60.1927484,68.0765432 54.048304,70.4172839 52.2927484,71.2950617 C48.293983,72.4654321 44.9779336,73.6358025 39.9063286,74.9037037 C38.248304,75.0987654 36.6878101,75.0987654 35.0297854,74.9037037 C31.4211435,74.4160494 25.1791682,74.8061728 24.7890447,74.5135802 C22.3507731,71.1 21.668057,64.8580247 19.4248472,61.5419753 C18.0594151,59.7864198 16.5964521,58.3234568 15.0359583,56.8604938 C9.67176075,51.4962963 4.99027927,46.3271605 3.72237803,40.7679012 C3.42978544,39.1098765 2.55200766,37.4518519 3.03966198,32.6728395 C4.30756322,28.1864198 6.45324223,24.4802469 10.0618842,20.8716049 C13.768057,20.9691358 17.4742299,20.9691358 20.4001558,21.554321 C21.7655879,21.7493827 24.4964521,22.1395062 27.3248472,23.2123457 C34.5421311,25.845679 44.0026249,30.3320988 44.0026249,30.3320988 C36.8828719,26.4308642 28.885341,21.3592593 23.9112669,20.2864198 C23.13102,20.1888889 22.7408966,19.7987654 22.448304,19.2135802 C30.0557114,14.7271605 31.4211435,9.55802469 36.3952175,4.87654321 C38.6384274,3.90123457 39.5162052,3.41358025 41.4668225,3.21851852 C59.3149706,6.04691358 70.6285509,13.1666667 79.5038595,17.945679 C83.1125015,19.8962963 86.4285509,21.3592593 89.5495385,23.2123457 C92.2804027,24.0901235 100.570526,30.3320988 103.008798,33.745679 C105.447069,38.9148148 107.300156,44.5716049 108.95818,50.0333333 C110.128551,55.5925926 111.20139,57.8358025 111.20139,57.8358025 C111.20139,57.8358025 110.226082,53.2518519 110.323613,52.3740741 C111.396452,52.7641975 113.834724,53.5444444 114.810032,53.4469136 C114.810032,53.4469136 110.226082,51.1061728 109.640897,49.0580247 C107.690279,42.4259259 105.837193,31.9901235 105.252008,31.5024691 C103.789045,29.6493827 97.7421311,25.0654321 94.0359583,22.9197531 C92.6705262,22.1395062 91.8902793,21.554321 91.7927484,21.2617284 C92.9631188,20.091358 94.4260817,18.4333333 95.7915138,17.4580247 C97.0594151,16.4827161 98.2297854,15.4098765 99.985341,14.7271605 C107.690279,11.2160494 112.176699,16.0925926 113.152008,15.117284 C113.152008,15.117284 111.493983,13.1666667 112.27423,13.5567901 C113.054477,13.9469136 115.492748,14.4345679 115.785341,14.7271605 C118.613736,16.9703704 126.026082,24.9679012 130.414971,33.5506173 C131.48781,35.5987654 131.877934,36.9641975 131.390279,39.5 C130.902625,42.0358025 130.512501,43.4012346 129.927316,45.0592593 C129.439662,46.1320988 126.708798,53.837037 126.708798,54.9098765 C126.123613,59.1037037 128.561884,64.3703704 128.561884,64.3703704 C128.561884,62.9074074 128.464353,62.1271605 128.561884,61.1518519 L128.756946,59.2987654 C128.756946,59.2987654 128.659415,58.8111111 128.659415,58.6160494 C128.756946,57.3481481 129.049539,56.2753086 129.147069,55.5925926 C130.024847,50.1308642 131.585341,46.1320988 133.340897,41.2555556 C133.828551,40.0851852 134.511267,39.4024691 134.511267,38.4271605 C134.511267,36.7691358 133.048304,34.6234568 131.975464,32.3802469 C130.805094,29.9419753 129.439662,27.5037037 127.976699,25.162963 C124.172995,19.6037037 120.856946,15.3123457 114.907563,12.5814815 C113.249539,11.8012346 106.61744,11.1185185 104.37423,11.508642 C101.643366,12.0938272 99.2050941,12.6790123 97.3520077,13.8493827 C94.3285509,15.8 91.9878101,18.7259259 89.2569459,20.4814815 C83.2100324,17.4580247 80.2841064,15.117284 79.6989212,14.8246914 C76.0902793,12.8740741 71.7013904,10.6308642 67.1174398,8.48518519 C64.6791682,6.04691358 50.8297854,0.975308641 38.0532422,0 Z M115.882872,113.525926 C112.176699,110.6 108.95818,107.576543 106.910032,104.455556 C106.227316,108.064198 103.789045,110.697531 101.838427,113.233333 C101.448304,113.818519 101.155711,114.696296 103.008798,117.232099 C103.496452,117.914815 105.349539,118.012346 106.519909,118.012346 C105.252008,117.037037 103.398921,116.061728 103.106329,115.183951 C105.349539,116.646914 107.300156,117.134568 109.153242,116.841975 C109.543366,116.841975 110.128551,116.354321 110.518674,115.671605 C111.298921,113.916049 111.981637,113.525926 112.664353,113.038272 L114.127316,114.891358 L115.882872,113.525926 L115.882872,113.525926 Z" id="Shape" fill="#000000"></path>
        </g>
    </g>
</svg>