<?xml version="1.0" encoding="UTF-8"?>
<svg width="84px" height="159px" viewBox="0 0 84 159" version="1.1" xmlns="http://www.w3.org/2000/svg" xmlns:xlink="http://www.w3.org/1999/xlink">
    <title>minio</title>
    <g id="Page-1" stroke="none" stroke-width="1" fill="none" fill-rule="evenodd">
        <g id="minio" transform="translate(0.962563, 0.403090)" fill="#DD113C" fill-rule="nonzero">
            <path d="M61.4609172,7.71107623 C61.4609172,7.71107623 76.9740472,32.6898447 82.1450904,41.5638809 C82.2438313,41.7013676 82.2438313,41.8865294 82.1450904,42.0240161 C82.0745672,42.1005272 81.9752555,42.1440518 81.8712004,42.1440518 C81.7671453,42.1440518 81.6678337,42.1005272 81.5973105,42.0240161 L54.7999123,14.0872355 L61.4609172,7.71107623 Z" id="Path"></path>
            <path d="M15.7760643,98.8397588 C20.3147434,89.2336497 26.4825658,80.486017 34.0061831,72.9845423 C36.8679773,70.1239291 39.9127538,67.4524305 43.1212425,64.9869542 L43.1212425,84.7070345 L15.7760643,98.8397588 Z M-5.68525212e-15,117.1137 L43.1212425,95.2024996 L43.1212425,145.379149 L52.8279042,158 L52.8279042,90.0752787 L58.7220171,87.0296217 C66.9887148,82.8650986 72.7964608,75.0335667 74.3811932,65.9137988 C75.9659256,56.7940309 73.1406143,47.4623418 66.7634277,40.7531664 L44.5673817,17.5492053 C42.7245849,15.5613613 42.832249,12.4586796 44.808405,10.6033546 C46.803622,8.75805871 49.9132281,8.86562373 51.7761666,10.8443779 L54.8875571,14.0872355 L61.4609172,7.68916506 C53.5947962,-2.52145439 43.9319568,-1.2286935 38.3884232,3.87661607 C32.7105576,9.22972763 32.436128,18.1682889 37.7749095,23.8596309 L60.2119788,47.2388818 C64.3382924,51.6652384 66.2419122,57.7200146 65.3908851,63.7112456 C64.539858,69.7024767 61.0254503,74.9876467 55.8297387,78.089852 L52.7840819,79.6674585 L52.7840819,47.9619513 C25.7295564,61.9002062 6.35579453,87.241312 -5.68525212e-15,117.004144 L-5.68525212e-15,117.1137 L-5.68525212e-15,117.1137 Z" id="Shape"></path>
            <polygon id="Path" points="52.8279042 90.0533674 52.8279042 100.307809 43.1212425 105.237829 43.1212425 95.0491211"></polygon>
        </g>
    </g>
</svg>