<?xml version="1.0" encoding="UTF-8"?>
<svg width="72px" height="158px" viewBox="0 0 72 158" version="1.1" xmlns="http://www.w3.org/2000/svg" xmlns:xlink="http://www.w3.org/1999/xlink">
    <title>mongodb</title>
    <g id="Page-1" stroke="none" stroke-width="1" fill="none" fill-rule="evenodd">
        <g id="mongodb" transform="translate(0.150904, 0.000000)" fill="#47A248" fill-rule="nonzero">
            <path d="M69.5316001,62.6707617 C61.2149986,26.0607422 41.5989283,14.0306777 39.4901528,9.42753901 C37.1740025,6.18329299 34.6659068,1.09634631e-15 34.6659068,1.09634631e-15 C34.6504771,0.123437466 34.6412193,0.202437543 34.6313443,0.320937505 L34.6313443,0.404874932 L34.6264068,0.404874932 C34.6135264,0.489947125 34.6052851,0.575657209 34.6017192,0.661625029 L34.6017192,0.760374971 L34.5862895,0.760374971 C34.5862895,0.824562534 34.5708598,0.878874932 34.5708598,0.933187486 L34.5708598,1.106 L34.5511098,1.106 C34.55,1.16083688 34.5433834,1.21542351 34.5313598,1.2689375 L34.5313598,1.40780467 L34.5159302,1.40780467 C34.5184788,1.45462785 34.5132652,1.50155014 34.5005005,1.54667184 L34.5005005,1.67998432 L34.4850708,1.67998432 C34.4846761,1.75102038 34.4795213,1.82195015 34.4696411,1.89229687 L34.4696411,1.90772657 C34.4498911,2.02128903 34.4301411,2.12991414 34.4103911,2.23853909 L34.4103911,2.29285149 L34.3949614,2.29285149 C34.38607,2.31855352 34.3794611,2.34498915 34.3752114,2.37185156 L34.3752114,2.48417964 L34.3554615,2.48417964 L34.3554615,2.62736713 L34.320899,2.62736713 L34.320899,2.74648443 L34.2863364,2.74648443 L34.2863364,2.8853516 L34.2616489,2.8853516 L34.2616489,3.00878907 L34.2369614,3.00878907 L34.2369614,3.12235153 L34.1974615,3.12235153 L34.1974615,3.21616412 L34.172774,3.21616412 L34.172774,3.33466408 L34.1480864,3.33466408 L34.1480864,3.42847652 L34.1135239,3.42847652 L34.1135239,3.5124141 L34.0937739,3.5124141 L34.0937739,3.61116404 L34.0690864,3.61116404 C34.0641489,3.61610155 34.0641489,3.63091406 34.0641489,3.63585156 L34.0641489,3.70003913 L34.044399,3.70003913 C34.040341,3.71279072 34.0386672,3.72618088 34.0394615,3.73953901 L34.0394615,3.77903905 L34.0240318,3.77903905 C34.0176088,3.80010689 34.0124563,3.8215413 34.0086021,3.84322661 C33.9888521,3.88766416 33.9641645,3.93703905 33.9444145,3.98209378 L33.9444145,3.99752348 C33.9289848,4.01295319 33.919727,4.03208602 33.909852,4.04196087 L33.909852,4.09627343 L33.8851646,4.09627343 L33.8851646,4.15058598 L33.8506021,4.15058598 L33.8506021,4.20489838 L33.8308521,4.20489838 L33.8308521,4.26908594 L33.791352,4.26908594 L33.791352,4.36289838 L33.7666645,4.36289838 L33.7666645,4.3875859 L33.741977,4.3875859 L33.741977,4.44189845 L33.7172896,4.44189845 L33.7172896,4.51596087 L33.6926021,4.51596087 L33.6926021,4.57027343 L33.653102,4.57027343 L33.653102,4.644336 L33.6284145,4.644336 L33.6284145,4.6986484 L33.593852,4.6986484 L33.593852,4.75296095 L33.5741021,4.75296095 L33.5741021,4.81714851 L33.5395396,4.81714851 L33.5395396,4.87146091 L33.5148521,4.87146091 L33.5148521,4.91096095 L33.4901645,4.91096095 L33.4901645,4.9652735 L33.4506645,4.9652735 L33.4506645,5.02452341 L33.425977,5.02452341 L33.425977,5.06402345 L33.3914146,5.06402345 L33.3914146,5.118336 L33.3667271,5.118336 L33.3667271,5.19239842 L33.3321645,5.19239842 L33.3321645,5.21708594 L33.3124145,5.21708594 L33.3124145,5.27139849 L33.2772348,5.27139849 L33.2772348,5.29608586 L33.2525474,5.29608586 L33.2525474,5.36027343 L33.2278599,5.36027343 L33.2278599,5.38496095 L33.2031724,5.38496095 L33.2031724,5.4392735 L33.169227,5.4392735 L33.169227,5.47753901 L33.149477,5.47753901 L33.1340473,5.50222654 L33.1340473,5.52691406 L33.1186176,5.52691406 C33.1136801,5.54234376 33.1031879,5.54234376 33.1031879,5.55160158 L33.1031879,5.55653909 L33.0982506,5.55653909 C33.0941868,5.57330981 33.0856554,5.58866629 33.073563,5.60097663 L33.073563,5.6207265 L33.0686255,5.6207265 C33.0389188,5.65787054 33.0124866,5.69751887 32.9896254,5.73922661 L32.9896254,5.74416412 C32.9674711,5.76320845 32.9475895,5.78474685 32.9303755,5.80835153 L32.9303755,5.82378123 L32.925438,5.82378123 C32.9205005,5.82871873 32.905688,5.83921093 32.905688,5.84353125 L32.905688,5.86328127 L32.8914927,5.86328127 L32.8717427,5.88303129 L32.8717427,5.88796879 L32.8668052,5.88796879 C32.8668052,5.8929063 32.8513755,5.90339849 32.8470552,5.91265632 L32.8470552,5.93734368 L32.8273051,5.93734368 L32.8118754,5.95277339 L32.8118754,5.96820309 L32.7964457,5.96820309 C32.7964457,5.98363279 32.781016,5.98363279 32.7810162,5.98795311 L32.7810162,6.00770313 L32.7563287,6.00770313 C32.7548137,6.01645335 32.7490226,6.02386595 32.740899,6.02745315 L32.740899,6.06695319 L32.7211489,6.06695319 L32.7211489,6.09164056 L32.6964614,6.09164056 L32.6964614,6.13114059 L32.6717739,6.13114059 L32.6717739,6.18545315 L32.6372114,6.18545315 L32.6372114,6.13114059 L32.602649,6.13114059 L32.602649,6.15582812 L32.5779614,6.15582812 L32.5779614,6.19532816 L32.5433989,6.19532816 L32.5433989,6.24964056 L32.5088364,6.24964056 L32.5088364,6.27432808 L32.4841489,6.27432808 L32.4841489,6.31382812 L32.4594615,6.31382812 L32.4594615,6.33851564 L32.434774,6.33851564 L32.434774,6.3928282 L32.3977427,6.3928282 L32.3977427,6.41751557 L32.3730552,6.41751557 L32.3730552,6.4570156 L32.3384926,6.4570156 L32.3384926,6.48170313 L32.3138051,6.48170313 L32.3138051,6.51626566 L32.2792427,6.51626566 L32.2792427,6.58045307 L32.263813,6.58045307 L32.263813,6.60514059 L32.224313,6.60514059 L32.224313,6.63970313 L32.1996254,6.63970313 L32.1996254,6.65513283 L32.1749379,6.65513283 L32.1749379,6.67982036 L32.1403755,6.67982036 L32.1403755,6.74400776 L32.115688,6.74400776 L32.115688,6.76869529 L32.0811255,6.76869529 L32.0811255,6.79338281 L32.056438,6.79338281 L32.056438,6.83288285 L32.0218754,6.83288285 L32.0218754,6.85757037 L31.9873131,6.85757037 L31.9873131,6.88225774 L31.9626255,6.88225774 L31.9626255,6.90694527 L31.937938,6.90694527 L31.937938,6.97113283 L31.9132505,6.97113283 L31.9132505,7.00569536 L31.8737504,7.00569536 L31.8737504,7.03038289 L31.8490629,7.03038289 L31.8490629,7.05507026 L31.8145005,7.05507026 L31.8145005,7.0945703 L31.789813,7.0945703 L31.789813,7.11925782 L31.7552505,7.11925782 L31.7552505,7.16369536 L31.730563,7.16369536 L31.730563,7.18838289 L31.6910629,7.18838289 L31.6910629,7.22788277 L31.6756334,7.22788277 L31.6756334,7.2525703 L31.6509458,7.2525703 L31.6509458,7.27725782 L31.6163833,7.27725782 L31.6163833,7.30194535 L31.5916958,7.30194535 L31.5916958,7.34144538 L31.5571333,7.34144538 L31.5571333,7.36613275 L31.5373832,7.36613275 C31.5340266,7.37056278 31.5322846,7.37600676 31.5324457,7.38156246 L31.5324457,7.39699216 L31.5170162,7.39699216 L31.4923287,7.42167968 C31.4849004,7.42920609 31.4766146,7.43583476 31.4676411,7.4414297 L31.4676411,7.48092974 L31.4429536,7.48092974 L31.4429536,7.51549212 L31.4182661,7.51549212 L31.4182661,7.54017964 L31.3935786,7.54017964 L31.3935786,7.56054685 L31.3738285,7.56054685 L31.3540787,7.58029687 L31.3540787,7.60004689 L31.338649,7.60004689 L31.3232193,7.61547659 L31.3232193,7.63522661 L31.3077896,7.63522661 C31.2807142,7.67336535 31.2492248,7.70816938 31.213977,7.73891406 C31.1985473,7.75434376 31.1596644,7.7833516 31.1349771,7.80310162 C31.0446403,7.86791917 30.9588557,7.93885643 30.8782271,8.01541402 C30.8277006,8.04960069 30.7798346,8.08756337 30.7350395,8.12897663 L30.7350395,8.13391414 L30.7301021,8.13391414 C30.623606,8.22009954 30.5166251,8.30568421 30.4091646,8.39066408 L30.4091646,8.39560158 C30.2511646,8.52891406 30.0981021,8.65235153 29.9201978,8.80556832 L29.9201978,8.80063081 L29.9047681,8.80063081 C29.5293637,9.11169331 29.1343638,9.45747263 28.6799594,9.84753521 L28.6799594,9.85247271 L28.6791879,9.85247271 C27.5682504,10.8253145 26.2445375,12.0797481 24.7628247,13.5909316 L24.6393872,13.7143691 C15.6861568,22.9794337 1.57169578,42.2842871 0.0851996282,73.4862012 C-0.0403255894,75.9954749 -0.02713882,78.5097669 0.124699667,81.0175859 L0.124699667,81.076836 C0.840791391,93.3688965 4.70268794,103.868336 9.52770561,112.392313 L9.52770561,112.39725 C11.3493098,115.615058 13.3870526,118.705619 15.6269067,121.647656 L15.6269067,121.652594 C22.8816372,131.233504 30.2895844,136.907926 32.1809555,138.285797 C35.0848228,145.02209 34.8132601,156.583246 34.8132603,156.583246 L39.0554986,158 C39.0554986,158 38.191436,146.799281 39.4062154,141.391484 C39.7816197,139.697613 40.670524,138.255555 41.7026157,137.030746 C43.5374041,135.723312 45.2905545,134.304942 46.9522583,132.78357 C47.0707583,132.660133 47.1349458,132.54657 47.2435708,132.428688 C57.258981,123.089869 75.9663969,100.095777 69.5511958,62.6366622 L69.5316001,62.6707617 Z" id="Path"></path>
        </g>
    </g>
</svg>