<?xml version="1.0" encoding="UTF-8"?>
<svg width="159px" height="159px" viewBox="0 0 159 159" version="1.1" xmlns="http://www.w3.org/2000/svg" xmlns:xlink="http://www.w3.org/1999/xlink">
    <title>mysql</title>
    <g id="Page-1" stroke="none" stroke-width="1" fill="none" fill-rule="evenodd">
        <g id="mysql" transform="translate(0.710222, 0.537628)" fill="#4A94C6" fill-rule="nonzero">
            <path d="M8.75435148,0.08967911 C15.8109458,-0.633621805 28.0541369,3.12401466 33.0466774,7.55202758 C35.357712,9.58079844 37.5981807,11.7154182 39.7680834,13.9206039 C59.5971134,9.98655261 77.3444481,19.9010676 92.6219747,43.4171681 C106.805729,65.2573274 116.526188,83.3927748 121.554011,97.4001145 C128.66353,101.104826 135.526068,105.285859 142.106342,109.925569 C153.114629,117.65254 156.113682,121.657157 157.383869,123.985833 C158.812829,126.596773 157.913113,129.895731 155.372739,131.359975 C154.596514,131.818653 153.71444,132.047992 152.814724,132.047992 L134.767484,132.047992 C137.44899,135.22346 140.18342,138.328361 142.988417,141.39798 C145.123036,143.426751 145.246527,146.86684 143.27068,149.054385 C141.294834,151.241929 137.960593,151.383061 135.825973,149.336648 C135.649558,149.177875 135.490785,149.00146 135.349653,148.807404 C129.84551,142.721091 124.500139,136.493647 119.27826,130.142712 C117.408262,127.849319 117.690526,124.444512 119.895712,122.503949 C120.83071,121.69244 122.030331,121.233762 123.265235,121.21612 L139.495402,121.21612 C131.786073,115.464996 123.618065,110.419531 115.061945,106.13265 C113.791758,105.515198 112.821476,104.386143 112.362797,103.010107 C107.899501,89.6202193 98.3025331,71.5906208 83.8894393,49.3976318 C70.4113442,28.6159616 55.8394769,20.677293 39.3799707,25.0523814 C37.5276147,25.546343 35.5694098,24.964174 34.2639399,23.5352137 C31.7059244,20.7831419 29.0244186,18.172202 26.2194224,15.702394 C23.4849921,13.2855104 15.4581161,10.9744758 11.2594425,10.762778 C12.4590635,13.5677742 15.6874554,19.5129549 24.5258397,31.3680333 C24.861028,31.8090705 25.1256503,32.3206736 25.3020651,32.8675596 C28.4246081,42.1116981 29.9417759,49.044802 29.9417759,54.0373425 C29.9417759,55.4133784 30.6827183,59.5414861 37.5276147,68.1858141 C38.6213868,69.56185 38.991858,71.414206 38.4978964,73.1254301 L32.4821498,94.295213 C29.0420601,106.397272 35.8869566,122.539232 40.226762,127.690545 C41.2323267,124.885549 42.7494945,118.217068 43.384588,102.851334 C43.5257199,99.8699225 45.9778864,97.5588878 48.8887315,97.6823782 C50.7410876,97.7705857 52.4346702,98.8643578 53.299103,100.55794 C55.8571184,105.585764 59.5794719,114.547639 64.6955028,127.919885 C70.7641739,143.761939 75.0157719,147.09618 76.5682227,147.784198 C79.1438796,149.177875 80.1318028,152.459191 78.7734084,155.105414 C77.5561459,157.469373 74.8569986,158.580787 72.3871906,157.698713 C66.1421046,154.911358 60.6026781,146.725709 54.9221197,131.889219 C53.881272,129.137147 52.8757073,126.579132 51.9407086,124.17989 C50.0883526,134.323744 47.2480734,137.887324 43.7197762,139.316285 C41.9556277,140.039586 38.3920475,140.621755 34.158091,136.634779 C26.2370639,129.17243 17.7162262,107.808591 22.4088614,91.2608774 L27.6660242,72.7549589 C22.0736732,65.2573274 19.4450918,59.2592223 19.4450918,54.0373425 C19.4450918,51.5675345 18.7747154,46.64556 15.6698139,37.2426481 C-0.71912636,15.1555079 -1.91874739,8.38117741 1.64483273,3.65325923 C3.17964199,1.64212986 5.57888405,0.424867339 8.75435148,0.08967911 Z M45.4839248,38.7598159 C47.5303371,38.2834957 53.9341965,38.1952883 55.9100429,41.2825483 C59.7206038,45.6752783 57.8506063,52.3614014 55.4690057,54.0373425 L55.1338175,54.3725307 C53.7754231,51.620459 51.6584448,49.4329147 50.3000504,46.680843 C48.5888263,44.105186 46.9834511,41.4766047 45.4839248,38.7598159 L45.4839248,38.7598159 Z" id="Shape"></path>
        </g>
    </g>
</svg>