<?xml version="1.0" encoding="UTF-8"?>
<svg width="30px" height="33px" viewBox="0 0 30 33" version="1.1" xmlns="http://www.w3.org/2000/svg" xmlns:xlink="http://www.w3.org/1999/xlink">
    <!-- Generator: Sketch 63.1 (92452) - https://sketch.com -->
    <title>形状结合</title>
    <desc>Created with Sketch.</desc>
    <defs>
        <linearGradient x1="-18.8885374%" y1="0%" x2="97.8404296%" y2="100%" id="linearGradient-1">
            <stop stop-color="#00E9FF" offset="0%"></stop>
            <stop stop-color="#3050FB" offset="100%"></stop>
        </linearGradient>
    </defs>
    <g id="页面-1" stroke="none" stroke-width="1" fill="none" fill-rule="evenodd">
        <g id="文件-无" transform="translate(-35.000000, -16.000000)" fill="url(#linearGradient-1)" fill-rule="nonzero">
            <g id="菜单栏">
                <g id="logo" transform="translate(35.000000, 16.000000)">
                    <path d="M14.5272368,0.963516191 C14.5621039,1.0461681 14.5800672,1.13496528 14.5800672,1.22467066 L14.5800672,31.5555289 C14.5800672,31.9266049 14.2792507,32.2274214 13.9081747,32.2274214 C13.8240669,32.2274214 13.7407069,32.2116296 13.6624269,32.1808668 L0.426144667,26.9792191 C0.16905784,26.8781881 0,26.6301074 0,26.3538812 L0,6.80846303 C0,6.53829798 0.161815864,6.29441001 0.410738033,6.18940093 L13.6470202,0.605608564 C13.9889188,0.461376936 14.3830052,0.621617639 14.5272368,0.963516191 Z M29.8697967,6.18238344 C29.9551382,6.33282574 30,6.50283118 30,6.67579378 L30,26.9307135 C30,27.4829982 29.5522847,27.9307135 29,27.9307135 C28.8512156,27.9307135 28.704306,27.8975133 28.5699805,27.8335331 L26.0278934,26.6227187 C25.6796994,26.4568714 25.4579128,26.1055731 25.4579128,25.7198991 L25.4579128,8.11784587 C25.4579128,7.75786636 25.6513935,7.42566683 25.9645025,7.24804921 L28.5065897,5.80599712 C28.9869651,5.53349411 29.5972937,5.70200801 29.8697967,6.18238344 Z M23.2261694,6.16449824 C23.3062843,6.31138252 23.3482643,6.47602066 23.3482643,6.64333291 L23.3482643,26.8848809 C23.3482643,27.4371657 22.900549,27.8848809 22.3482643,27.8848809 C22.1908364,27.8848809 22.0356326,27.8477127 21.8952825,27.7764007 L17.2435468,25.4128511 C16.9079376,25.2423279 16.6965286,24.8977775 16.6965286,24.5213313 L16.6965286,9.18052327 C16.6965286,8.81457192 16.8964233,8.47784836 17.2176939,8.30261817 L21.8694296,5.76542782 C22.3542832,5.50097473 22.9617163,5.67964464 23.2261694,6.16449824 Z M9.59724465,22.8411655 C9.31688201,23.033995 9.23868888,23.4187063 9.42150057,23.7058288 L10.5992754,25.4776135 L8.84473613,26.6714049 C8.56090113,26.8667705 8.48498094,27.2580712 8.67516364,27.5453994 C8.86534633,27.8327277 9.24961359,27.9072781 9.53344859,27.7119125 L11.658699,26.2501946 C11.8302818,26.1322124 11.9492033,25.9500531 11.9892946,25.7438013 C12.0293859,25.5375494 11.9873619,25.3241055 11.87247,25.1504383 L10.4492379,22.9989652 C10.2566813,22.7185451 9.87760728,22.6483359 9.59724465,22.8411655 Z M6.99936791,21.9599769 L6.9434152,22.0423197 L4.92773771,25.5335756 C4.74219972,25.8549368 4.85230621,26.2658598 5.17366744,26.4513978 C5.465814,26.6200687 5.83197857,26.5444053 6.03553695,26.2878109 L6.09148966,26.205468 L8.10716715,22.7142122 C8.29270514,22.392851 8.18259865,21.981928 7.86123742,21.79639 C7.56909086,21.6277191 7.20292629,21.7033825 6.99936791,21.9599769 Z M3.99863694,21.4108842 L3.92388866,21.4513841 L2.29643987,22.5705161 C2.16506598,22.6608501 2.07401267,22.800322 2.04331642,22.9582405 C2.01875941,23.0845753 2.03444071,23.2144344 2.08673512,23.3294052 L2.13276425,23.4125541 L3.22224202,25.0598031 C3.36770338,25.2799041 3.6618798,25.3371961 3.87930343,25.1877683 C4.07256889,25.0549436 4.14013622,24.8034941 4.05060302,24.5946722 L4.00960265,24.5186771 L3.10644819,23.1679586 L4.45074281,22.2479676 C4.6628747,22.0965717 4.7177081,21.8010352 4.57398439,21.5837305 C4.44622999,21.3905707 4.20349614,21.3225826 3.99863694,21.4108842 Z M7.74853809,16.153083 L2.37421678,16.2468921 C2.00319731,16.2533683 1.70767658,16.559389 1.71415275,16.9304084 C1.72004018,17.2676988 1.97348505,17.5425936 2.29826969,17.5849213 L2.39766906,17.5904724 L7.77199038,17.4966633 C8.14300984,17.4901871 8.43853057,17.1841665 8.4320544,16.813147 C8.42557823,16.4421275 8.11955756,16.1466068 7.74853809,16.153083 Z M9.27182137,12.603697 L9.1722769,12.6050932 L2.34505232,13.2023979 C1.9753884,13.2347393 1.70193446,13.560629 1.73427587,13.9302929 C1.76367714,14.2663511 2.03568032,14.5228968 2.36262644,14.5424655 L2.4621709,14.5410694 L9.28939548,13.9437646 C9.65905941,13.9114232 9.93251334,13.5855335 9.90017194,13.2158696 C9.87371079,12.9134173 9.6507421,12.67537 9.36806925,12.6165195 L9.27182137,12.603697 Z M10.5691859,8.61690018 L10.4701419,8.62696689 L2.33141714,10.0620437 C1.96597864,10.1264803 1.72196844,10.474963 1.78640511,10.8404015 C1.84498389,11.1726183 2.13831145,11.4044812 2.46571897,11.3954802 L2.56476295,11.3854135 L10.7034877,9.95033677 C11.0689262,9.8859001 11.3129364,9.53741742 11.2484998,9.17197892 C11.1957788,8.87298378 10.9529114,8.65527536 10.6661851,8.62128531 L10.5691859,8.61690018 Z" id="形状结合"></path>
                </g>
            </g>
        </g>
    </g>
</svg>