<?xml version="1.0" encoding="UTF-8"?>
<svg width="32px" height="32px" viewBox="0 0 32 32" version="1.1" xmlns="http://www.w3.org/2000/svg" xmlns:xlink="http://www.w3.org/1999/xlink">
    <!-- Generator: Sketch 63.1 (92452) - https://sketch.com -->
    <title>头像</title>
    <desc>Created with Sketch.</desc>
    <g id="页面-1" stroke="none" stroke-width="1" fill="none" fill-rule="evenodd">
        <g id="代码" transform="translate(-1271.000000, -16.000000)">
            <g id="Top-Bar">
                <g id="编组-3" transform="translate(1271.000000, 16.000000)">
                    <g id="头像">
                        <circle id="Img" fill="#D9DFF6" cx="16" cy="16" r="16"></circle>
                        <path d="M9.99988719,21.6879004 C9.99867343,19.3932615 11.3294621,17.3065558 13.4105547,16.3399004 C14.1831645,16.8368803 15.0812562,17.1037181 15.9998872,17.1092337 C16.9185199,17.1037181 17.8166116,16.8368803 18.5892213,16.3399004 C20.6703139,17.3065558 22.0011026,19.3932615 22.0000011,21.6879004 C22.0425547,24.1279004 9.99988719,24.1692337 9.99988719,21.6879004 L9.99988719,21.6879004 Z M18.8492213,15.2692337 C18.4847904,15.6456349 18.0424589,15.9377922 17.5532213,16.1252337 C17.0785547,16.3385671 16.5172213,16.4252337 15.999888,16.4252337 C15.4812213,16.4252337 14.919888,16.3399004 14.4452213,16.1252337 C13.9681138,15.9163595 13.5305935,15.6267842 13.151888,15.2692337 C12.7733101,14.910212 12.4783405,14.4723095 12.287888,13.9865671 C12.071888,13.5159004 11.9852213,13.0025671 11.9852213,12.4452337 C11.9852213,11.9319004 12.071888,11.4185671 12.287888,10.9052337 C12.503888,10.4345671 12.8052213,9.96390041 13.1505547,9.62123374 C13.539888,9.23723374 13.9705547,8.93723374 14.4452213,8.76656706 C14.963888,8.55323374 15.4812213,8.46656706 15.999888,8.46656706 C16.5172213,8.46656706 17.079888,8.55190039 17.5532213,8.76656706 C18.027888,8.97990039 18.503888,9.27990039 18.8492213,9.62123374 C19.235888,10.0079004 19.539888,10.4345671 19.711888,10.9052337 C19.927888,11.3759004 20.0145547,11.8892337 20.0145547,12.4452337 C20.0145547,12.9599004 19.927888,13.4719004 19.711888,13.9865671 C19.5385547,14.4572337 19.2372213,14.8852337 18.8492213,15.2692337 L18.8492213,15.2692337 Z" id="Shape" fill="#2662EF" fill-rule="nonzero"></path>
                    </g>
                </g>
            </g>
        </g>
    </g>
</svg>