<?xml version="1.0" encoding="UTF-8"?>
<svg width="82px" height="159px" viewBox="0 0 82 159" version="1.1" xmlns="http://www.w3.org/2000/svg" xmlns:xlink="http://www.w3.org/1999/xlink">
    <title>pinot</title>
    <g id="Page-1" stroke="none" stroke-width="1" fill="none" fill-rule="evenodd">
        <g id="pinot" transform="translate(0.700000, 0.203842)" fill="#722F37" fill-rule="nonzero">
            <path d="M48.7458871,6.09282169 C47.2951166,4.64205123 47.1983986,2.99784472 48.552451,1.3052792 C50.5351706,-1.2577486 53.8235836,0.193021855 53.8235836,3.5781529 C53.8235836,6.96328396 50.9704018,8.36569539 48.7458871,6.09282169 Z" id="Path" transform="translate(50.709066, 3.601658) scale(-1, 1) rotate(-180.000000) translate(-50.709066, -3.601658) "></path>
            <path d="M24.1311485,15.3196482 C22.2451469,13.4336466 22.777096,10.1935926 25.1466878,9.27477136 C27.9998697,8.21087303 30.5628974,12.8049795 28.3867418,15.1745712 C27.3712025,16.2868285 25.1466878,16.3835466 24.1311485,15.3196482 Z" id="Path" transform="translate(26.096005, 12.591562) scale(-1, 1) rotate(-180.000000) translate(-26.096005, -12.591562) "></path>
            <path d="M48.60081,157.25898 C47.5369117,156.533595 47.5369117,156.436877 47.5369117,142.412763 C47.5369117,126.744442 47.4401937,126.115775 44.6353708,126.115775 C41.975625,126.115775 41.7338299,126.889519 41.7338299,135.110551 C41.7338299,142.509481 41.7338299,142.606199 40.4764955,143.815174 C39.5576742,144.782354 38.977366,144.97579 37.9618267,144.733995 C35.3987989,144.105328 35.447158,144.4922 35.447158,128.29193 L35.447158,113.203918 L38.1552628,114.606329 C40.4281365,115.718586 41.5403938,115.960382 44.4419347,115.960382 C51.2605558,115.960382 56.3382524,111.946583 57.9824589,105.22468 C58.7078441,102.371498 58.7078441,101.839549 57.9824589,99.0347263 C56.6767655,94.0053887 53.0014804,90.0883085 48.3106559,88.8309741 C45.215679,88.0088709 40.7666496,88.492461 37.9134677,89.9432315 L35.447158,91.2489249 L35.447158,84.2368677 C35.447158,77.4182466 35.3987989,77.1764515 34.2381826,76.0641942 C33.6095154,75.387168 32.7390531,74.8552188 32.303822,74.8552188 C31.8685909,74.8552188 30.9981286,75.387168 30.3694614,76.0641942 L29.160486,77.2248105 L29.160486,112.962123 L29.160486,148.699435 L27.9515106,149.231384 C26.6458172,149.811692 25.5335599,149.618256 24.2278665,148.45764 C23.5508403,147.92569 23.3574042,146.95851 23.3574042,144.637277 L23.3574042,141.590659 L17.7961175,141.590659 L12.1864718,141.590659 L11.3160095,139.559581 C10.4455472,137.431784 2.94989991,110.882685 1.01553931,103.145243 C0.19343606,99.7117525 6.87222936e-15,97.3905198 6.87222936e-15,92.0226691 C6.87222936e-15,84.1401497 0.918821284,79.9329154 3.96543923,73.6462434 C8.31775057,64.6031076 14.4593455,58.7516668 25.5819189,53.1903801 C31.6267958,50.1437622 32.9808482,49.0315048 34.6734137,45.5980145 C36.4626973,41.9227294 37.2364415,37.9572902 37.9134677,28.7690773 C38.3970579,22.3373283 38.3486989,20.9832759 37.8167497,20.4996858 C37.4298776,20.1611727 32.7874121,18.5169662 27.4679205,16.8727596 C22.1484288,15.1801941 17.6993995,13.7294237 17.6026814,13.6327056 C17.5059634,13.5359876 27.7097156,13.4392696 40.3314185,13.4876286 C53.8719427,13.4876286 62.7700014,13.6810647 62.0446162,13.9228597 C61.36759,14.1646548 56.6284065,15.7121433 51.4539919,17.3079908 L42.072343,20.3062497 L42.3624971,27.1732298 C42.7010102,35.2008263 43.2813184,39.1662655 44.7320888,43.3251408 C46.3762953,48.0159653 48.1172199,49.660172 55.080918,53.1903801 C68.1378521,59.7672062 75.5851404,67.6013666 78.9702714,78.4821449 C80.5177599,83.3180464 80.807914,92.2161052 79.6956566,99.2765214 C78.1481682,109.286837 69.5886225,139.849735 67.992775,140.961992 C67.4608259,141.397223 65.0912341,141.590659 60.4971277,141.590659 L53.8235836,141.590659 L53.8235836,148.844512 C53.8235836,155.469697 53.7268656,156.195082 52.8564033,157.065544 C51.695787,158.226161 50.0999395,158.322879 48.60081,157.25898 Z" id="Path" transform="translate(40.183298, 85.737383) scale(-1, 1) rotate(-180.000000) translate(-40.183298, -85.737383) "></path>
            <path d="M36.2692612,19.776121 C35.1570039,18.5671456 35.2053629,15.6656047 36.3176202,14.6984244 C37.2364415,13.8279622 39.1708021,13.6345261 40.0896234,14.2631933 C41.0568037,14.8918605 41.8305479,16.8745801 41.5403938,17.9868375 C40.9117266,20.5498653 37.8651087,21.5654046 36.2692612,19.776121 Z" id="Path" transform="translate(38.530506, 17.286108) scale(-1, 1) rotate(-180.000000) translate(-38.530506, -17.286108) "></path>
            <path d="M40.7666496,75.5639317 C38.1069038,73.7262892 37.1397235,72.0337236 37.1397235,69.1321827 C37.1397235,65.0216665 39.8478283,62.1201256 44.0067036,61.7816125 C48.407374,61.4430994 51.889223,64.7798714 51.889223,69.3739778 C51.889223,74.9836236 45.264038,78.6105497 40.7666496,75.5639317 Z" id="Path" transform="translate(44.514473, 69.214444) scale(-1, 1) rotate(-180.000000) translate(-44.514473, -69.214444) "></path>
        </g>
    </g>
</svg>