<?xml version="1.0" encoding="UTF-8"?>
<svg width="154px" height="159px" viewBox="0 0 154 159" version="1.1" xmlns="http://www.w3.org/2000/svg" xmlns:xlink="http://www.w3.org/1999/xlink">
    <title>postgresql</title>
    <g id="Page-1" stroke="none" stroke-width="1" fill="none" fill-rule="evenodd">
        <g id="postgresql" transform="translate(0.750961, 0.366948)" fill-rule="nonzero">
            <path d="M153.060245,94.7661077 C152.026726,91.9661696 149.516865,89.9772233 146.554838,89.6108792 C144.849137,89.3153224 143.10531,89.3153224 141.39961,89.6108792 C138.78182,90.2162841 136.107743,90.5454012 133.42128,90.5928274 C140.587171,78.6048104 146.040738,65.673245 149.623426,52.1741007 C155.024142,31.3076996 152.201041,21.8564474 148.764222,17.5604236 C139.882033,6.30825701 126.275387,-0.177577624 111.941161,0.008097984 C105.376136,-0.0965890069 98.8343858,0.814287569 92.5476822,2.70845577 C88.5646346,2.12673165 84.544108,1.83955118 80.5188157,1.84925102 C73.5658333,1.63134208 66.686841,3.32985872 60.6343629,6.75899246 C56.0813293,5.17169197 51.3996655,3.9807424 46.6415998,3.19942992 C35.4504394,0.524644437 23.6546285,2.42434431 13.8690758,8.47740196 C3.41736909,17.1338881 -1.67236375,30.6753792 0.490030363,44.0730274 C1.95237063,56.5658509 4.58240095,68.894118 8.34561666,80.8960881 C10.5485334,88.4218333 13.4241433,95.7340984 16.9376642,102.744437 C19.4949245,109.126256 24.4208215,114.272059 30.6849402,117.105431 C35.3499163,118.600029 40.4581562,117.475279 44.0639856,114.159586 C44.8619816,115.129151 45.8161065,115.958825 46.8870869,116.614457 C48.5314726,117.599984 50.3089691,118.344052 52.165059,118.823841 C58.3343147,120.536428 64.8980248,120.147787 70.8220764,117.719149 C70.7581163,118.618132 70.7581163,119.520524 70.8220764,120.419507 C70.7587645,121.646126 70.7587645,122.875194 70.8220764,124.101813 C70.715877,130.407847 71.5431213,136.694904 73.2769471,142.75883 C73.2345355,143.084772 73.2345355,143.414836 73.2769471,143.740778 C74.3042668,147.436269 76.246098,150.813367 78.9231498,153.560261 C82.2605688,156.612844 86.6801973,158.20391 91.1975034,157.979029 C93.0551784,157.97035 94.9066916,157.764626 96.7209625,157.365311 C103.46818,156.360274 109.550919,152.745893 113.65957,147.300341 C119.103979,137.796275 121.742681,126.94355 121.26967,116.000739 C121.330167,115.593831 121.330167,115.180213 121.26967,114.773304 L121.26967,113.914099 L122.619849,113.914099 C128.703355,114.171459 134.77158,113.125213 140.417661,110.845511 C144.099967,109.249845 155.515116,103.235412 152.692015,95.1343383 L153.060245,94.7661077 Z" id="Path" fill="#000000"></path>
            <path d="M142.749788,96.2390301 C124.951976,99.9213362 123.72454,93.9069029 123.72454,93.9069029 C142.504301,65.9213767 150.482631,30.0802643 143.608993,21.8564474 C125.074719,-1.71031152 93.0386564,9.58209378 92.5476822,9.58209378 C88.501576,8.80392296 84.3934073,8.39310609 80.2733287,8.35465842 C73.5485961,8.00645117 66.9113293,10.0019693 61.4935677,14.0008611 C61.4935677,14.0008611 4.41782351,-9.44315428 7.1181813,43.8275403 C7.1181813,55.1199456 23.320328,129.748015 41.9773455,106.917718 C48.8509835,98.6939008 55.3563909,91.4520322 55.3563909,91.4520322 C58.6598976,93.717439 62.6678635,94.7194305 66.6487962,94.2751335 C66.5260071,95.3353675 66.5260071,96.4062314 66.6487962,97.4664654 C61.8617983,102.867181 63.2119772,103.849129 53.6379814,105.813026 C44.0639856,107.776922 49.5874447,111.336485 53.6379814,112.318433 C61.7572307,114.931775 70.635065,112.005561 75.6090743,105.076565 L75.6090743,106.181256 C78.2109706,111.599775 79.2725432,117.629507 78.6776627,123.610839 C78.0232043,129.277504 78.3974399,135.015783 79.7823545,140.549447 C81.255277,144.599983 82.7281994,153.683005 95.3707836,150.982647 C104.677413,150.11257 111.855229,142.406974 112.063904,133.062091 C112.677622,126.065709 113.905057,127.170401 114.027801,120.787737 L114.887006,117.841892 C116.114441,108.39064 114.887006,105.567539 121.6379,106.794974 L123.233566,106.794974 C128.261875,107.031042 133.282845,106.194214 137.962791,104.340103 C145.818377,100.657797 150.237144,94.5206206 142.749788,96.1162866 L142.749788,96.2390301 Z" id="Path" fill="#0A5C82"></path>
            <path d="M68.8581798,51.4376395 C68.8581798,49.9647171 67.0170268,49.1055123 65.0531302,48.7372817 C63.7531367,48.4421959 62.3893761,48.6621573 61.2480806,49.3509994 C60.9640102,49.5713406 60.7506628,49.8700269 60.6343629,50.2102041 C60.7068741,50.8797187 60.9615981,51.5165286 61.3708241,52.0513572 C61.9638353,53.3694307 63.1488222,54.3265355 64.5621561,54.6289714 C66.297605,54.7337666 67.8954632,53.6851721 68.4899492,52.0513572 L68.8581798,51.4376395 Z M114.396032,47.6325899 C112.554879,47.6325899 110.713726,48.7372817 110.836469,49.8419735 C111.436751,51.2721969 112.845082,52.1948962 114.396032,52.1741007 C115.360472,51.9625186 116.250565,51.4962794 116.973646,50.8239218 C117.493061,50.2843794 117.835609,49.5992827 117.955594,48.8600253 C117.955594,47.7553334 115.868954,47.3871028 114.027801,47.6325899 L114.396032,47.6325899 Z" id="Shape" fill="#FFFFFF"></path>
            <path d="M148.764222,95.8707995 C148.764222,93.7841594 145.94112,93.1704417 142.381558,93.9069029 C131.580127,95.993543 127.652334,94.5206206 126.424898,93.9069029 C134.966147,80.6654994 141.38536,66.1705022 145.450146,50.9466654 C147.046851,44.9698154 147.993373,38.8379977 148.273248,32.6578785 C148.650483,28.3550713 147.61641,24.0464341 145.327403,20.3835249 C137.113073,10.0545435 124.519621,4.18972272 111.327443,4.54960881 C104.612133,4.41922071 97.9252937,5.45754974 91.565734,7.61819721 C87.9693465,6.52673707 84.2655377,5.82712873 80.5188157,5.5315571 C73.7824403,5.26901266 67.1318974,7.11400198 61.4935677,10.8095291 C56.4854761,8.94963713 51.3047175,7.59277178 46.0278822,6.75899246 C35.9557284,4.28236362 25.3120187,5.91646013 16.44669,11.3005033 C7.10396969,19.2230171 2.70440599,31.5324347 4.90879765,43.5820532 C6.35526831,55.6650504 8.94447594,67.5836252 12.6416404,79.1776786 C18.6560737,98.9393879 24.915994,110.10905 32.1578626,112.441177 C33.0528135,112.57759 33.9632695,112.57759 34.8582204,112.441177 C38.4024295,112.25102 41.6618891,110.44021 43.695755,107.531435 C47.6235481,102.744437 51.6740848,98.2029267 55.9701086,93.7841594 C58.5645803,95.4240197 61.5072937,96.43295 64.5621561,96.7300042 L62.9664901,98.5711573 C60.87985,101.271515 60.5116194,101.885233 53.6379814,103.235412 C51.6740848,103.235412 46.5188563,104.708334 46.5188563,108.267897 C46.5188563,111.827459 52.5332896,113.914099 53.2697508,114.036843 C55.5577545,114.609419 57.9075734,114.897993 60.2661323,114.896048 C65.4562753,115.038875 70.5051618,113.194934 74.3816389,109.740819 C73.8527133,120.52089 74.6774351,131.324746 76.8365097,141.899625 C78.4868216,149.053254 84.8380378,154.134227 92.1794516,154.173979 C93.8676905,153.938892 95.5181405,153.485019 97.0891931,152.8238 C106.674755,152.053803 114.248384,144.37571 114.887006,134.7805 C115.868954,129.011554 117.587364,115.141535 118.446568,107.776922 C120.489701,108.307576 122.595986,108.555374 124.706489,108.513384 C129.546016,108.578913 134.348377,107.6602 138.821995,105.813026 C142.872532,103.971873 150.114401,99.430362 148.764222,95.5025689 L148.764222,95.8707995 Z M111.941161,8.72288903 C123.584259,8.60360813 134.632778,13.8561827 141.890584,22.9611392 C147.414043,29.9575207 141.276866,61.8708401 123.847284,89.4881356 L123.233566,88.8744179 C126.72622,82.1074647 127.683998,74.3146359 125.933924,66.903325 C125.776735,64.4509706 125.776735,61.9910673 125.933924,59.5387129 C125.933924,56.9610986 125.933924,54.8744585 126.670385,52.7878184 C127.185997,49.9947438 127.432612,47.1586652 127.406846,44.3185144 C127.469198,43.9117448 127.469198,43.4978487 127.406846,43.0910791 C125.561217,35.5669093 121.894027,28.611894 116.728159,22.8383957 C111.790729,17.3132154 105.720238,12.9173431 98.9303461,9.95032439 C102.970191,9.12998833 107.082409,8.71876653 111.2047,8.72288903 L111.941161,8.72288903 Z M121.6379,67.6397862 C122.826977,73.2483782 122.401371,79.0791742 120.410465,84.4556506 C119.928224,83.6759957 119.517409,82.8543657 119.18303,82.0007799 L117.219133,78.1957303 C113.29134,71.3220923 104.944779,55.2426891 108.995316,48.6145382 C110.345495,46.6506416 113.782314,44.686745 122.497105,45.7914369 C122.48159,47.8923076 122.276182,49.9874746 121.883387,52.0513572 C121.424294,54.4387949 121.177842,56.8622446 121.146926,59.2932258 C120.898805,62.0698806 120.898805,64.8631314 121.146926,67.6397862 L121.6379,67.6397862 Z M40.0134489,105.322052 C36.4538864,109.495332 33.9990156,108.758871 33.2625544,108.39064 C27.9845824,106.672231 21.9701491,96.1162866 16.5694336,78.0729868 C13.101066,66.7392928 10.6770047,55.1120153 9.32756494,43.3365661 C7.423503,32.9526856 11.1038849,22.3308239 19.0243043,15.35104 C31.2986579,7.12722306 49.8329318,12.0369645 57.443031,14.4918352 C49.1580685,24.5648503 44.7981771,37.2957331 45.1686774,50.3329477 L45.1686774,52.5423313 C45.7573464,58.5833723 45.7573464,64.6673337 45.1686774,70.7083746 C44.126967,77.7132502 46.3419651,84.8102848 51.1831107,89.9791098 L52.2878025,91.4520322 C50.0784188,93.7841594 45.4141645,98.8166443 40.0134489,104.953821 L40.0134489,105.322052 Z M53.5152378,87.278752 C49.5849133,83.1044981 47.7767263,77.3635043 48.6054964,71.6903229 C49.3097835,65.3681273 49.3097835,58.9872704 48.6054964,52.6650749 L48.6054964,51.314896 C53.530624,47.6209082 59.6639474,45.9123395 65.7895914,46.5278981 C68.589014,47.109087 70.6808403,49.4499403 70.9448199,52.2968443 C74.0561624,62.0201657 73.3090505,72.5676282 68.8581798,81.7552929 C68.8581798,82.9827282 67.8762315,84.08742 67.5080009,85.1921119 L67.5080009,86.0513166 C66.3917554,88.0720779 65.407742,90.1631064 64.5621561,92.3112369 C60.2684541,92.2474511 56.1879746,90.4289766 53.2697508,87.278752 L53.5152378,87.278752 Z M74.1361519,103.726386 C69.6160935,109.895378 61.6220042,112.427667 54.3744426,109.986306 C53.3145836,109.797392 52.3090294,109.378411 51.4285977,108.758871 C52.4501814,108.307524 53.5213221,107.977942 54.6199297,107.776922 C62.5982595,106.181256 63.8256949,105.076565 66.8942833,101.639746 L69.1036669,98.8166443 C70.5765893,97.2209784 71.3130505,97.4664654 72.4177424,97.9574396 C73.5839034,98.5567105 74.43417,99.6307315 74.7498696,100.903284 C75.1707216,101.797265 75.1707216,102.832406 74.7498696,103.726386 L74.1361519,103.726386 Z M114.396032,103.726386 C114.396032,107.899666 111.695674,127.415888 110.590982,134.289526 C110.281849,142.110017 104.047565,148.397586 96.2299883,148.773263 C93.0726754,149.803468 89.6326525,149.510271 86.695225,147.960604 C83.7577975,146.410938 81.5737109,143.737085 80.6415593,140.549447 C78.7187565,127.797672 78.1837435,114.875051 79.0458933,102.007976 C79.1033192,101.765848 79.1033192,101.513644 79.0458933,101.271515 C79.1036965,100.823311 79.1036965,100.36954 79.0458933,99.9213362 C78.3442232,97.3367674 76.55182,95.1858836 74.1361519,94.0296464 C72.7049348,93.5339501 71.1486017,93.5339501 69.7173846,94.0296464 C70.2164332,92.0719337 70.8312318,90.1455649 71.5585376,88.2607003 L71.5585376,87.4014955 C71.5585376,86.4195472 72.4177424,85.4375989 72.9087165,84.3329071 C77.6699432,74.2358969 78.5013206,62.7278821 75.2408437,52.0513572 C74.8010094,48.8697854 73.0549061,46.0155392 70.4225783,44.1752392 C67.7902506,42.3349393 64.5099625,41.6751597 61.3708241,42.3546179 C57.6412007,42.8094128 54.0239334,43.932013 50.6921365,45.6686933 L49.4647012,45.6686933 C49.8938453,35.4440395 53.6913801,25.6481261 60.2661323,17.8059107 C65.6486481,12.6402933 72.9508191,9.96876733 80.3960722,10.4412985 C93.2739091,10.3252711 105.508761,16.0589473 113.65957,26.0297276 C117.49812,30.5294064 120.492058,35.6856332 122.497105,41.249926 C116.453609,39.7128743 110.052979,41.5954126 105.803984,46.1596675 C99.6668073,54.997202 109.240803,72.1812971 113.782314,80.405114 L115.623467,83.7191894 C116.631656,86.4857896 118.037512,89.0907581 119.796747,91.4520322 L121.024183,92.9249546 C118.446568,93.6614158 114.027801,95.3798253 114.396032,103.726386 L114.396032,103.726386 Z M136.980842,102.13072 C133.533695,103.481114 129.879942,104.228473 126.179411,104.340103 C123.691501,104.691913 121.154905,104.395977 118.814799,103.480899 C118.814799,98.3256702 120.533208,97.7119525 122.497105,97.2209784 L123.479053,97.2209784 C129.525947,99.7461103 136.2803,100.007569 142.504301,97.9574396 C140.653726,99.6415339 138.538888,101.009958 136.244381,102.007976 L136.980842,102.13072 Z" id="Shape" fill="#FFFFFF"></path>
        </g>
    </g>
</svg>