<?xml version="1.0" encoding="UTF-8"?>
<svg width="185px" height="158px" viewBox="0 0 185 158" version="1.1" xmlns="http://www.w3.org/2000/svg" xmlns:xlink="http://www.w3.org/1999/xlink">
    <title>presto</title>
    <g id="Page-1" stroke="none" stroke-width="1" fill="none" fill-rule="evenodd">
        <g id="presto" transform="translate(0.000000, 0.000195)" fill-rule="nonzero">
            <path d="M94.047619,9.4047619 C94.047619,14.577381 98.2797619,18.8095238 103.452381,18.8095238 C108.625,18.8095238 112.857143,14.577381 112.857143,9.4047619 C112.857143,4.23214286 108.625,8.35310657e-15 103.452381,8.35310657e-15 C98.2797619,8.35310657e-15 94.047619,4.23214286 94.047619,9.4047619 Z" id="Path" fill="#5B94FC"></path>
            <path d="M92.1666667,55.4880952 C92.1666667,61.225 96.775,65.8333333 102.511905,65.8333333 C108.24881,65.8333333 112.857143,61.225 112.857143,55.4880952 C112.857143,49.7511905 108.24881,45.1428571 102.511905,45.1428571 C96.775,45.1428571 92.1666667,49.7511905 92.1666667,55.4880952 Z" id="Path" fill="#34E3FD"></path>
            <path d="M116.619048,31.9761905 C116.619048,37.1488095 120.85119,41.3809524 126.02381,41.3809524 C131.196429,41.3809524 135.428571,37.1488095 135.428571,31.9761905 C135.428571,26.8035714 131.196429,22.5714286 126.02381,22.5714286 C120.85119,22.5714286 116.619048,26.8035714 116.619048,31.9761905 Z M139.190476,55.4880952 C139.190476,61.225 143.79881,65.8333333 149.535714,65.8333333 C155.272619,65.8333333 159.880952,61.225 159.880952,55.4880952 C159.880952,49.7511905 155.272619,45.1428571 149.535714,45.1428571 C143.79881,45.1428571 139.190476,49.7511905 139.190476,55.4880952 Z M159.880952,79.9404762 C159.880952,86.7119048 165.335714,92.1666667 172.107143,92.1666667 C178.878571,92.1666667 184.333333,86.7119048 184.333333,79.9404762 C184.333333,73.1690476 178.878571,67.7142857 172.107143,67.7142857 C165.335714,67.7142857 159.880952,73.1690476 159.880952,79.9404762 L159.880952,79.9404762 Z" id="Shape" fill="#5B94FC"></path>
            <path d="M114.738095,79 C114.738095,85.2071429 119.816667,90.2857143 126.02381,90.2857143 C132.230952,90.2857143 137.309524,85.2071429 137.309524,79 C137.309524,72.7928571 132.230952,67.7142857 126.02381,67.7142857 C119.816667,67.7142857 114.738095,72.7928571 114.738095,79 L114.738095,79 Z M137.309524,102.511905 C137.309524,109.283333 142.764286,114.738095 149.535714,114.738095 C156.307143,114.738095 161.761905,109.283333 161.761905,102.511905 C161.761905,95.7404762 156.307143,90.2857143 149.535714,90.2857143 C142.764286,90.2857143 137.309524,95.7404762 137.309524,102.511905 Z M69.5952381,31.9761905 C69.5952381,37.1488095 73.827381,41.3809524 79,41.3809524 C84.172619,41.3809524 88.4047619,37.1488095 88.4047619,31.9761905 C88.4047619,26.8035714 84.172619,22.5714286 79,22.5714286 C73.827381,22.5714286 69.5952381,26.8035714 69.5952381,31.9761905 Z M47.0238095,8.46428571 C47.0238095,13.1666667 50.7857143,16.9285714 55.4880952,16.9285714 C60.1904762,16.9285714 63.952381,13.1666667 63.952381,8.46428571 C63.952381,3.76190476 60.1904762,6.68248525e-15 55.4880952,6.68248525e-15 C50.7857143,6.68248525e-15 47.0238095,3.76190476 47.0238095,8.46428571 Z" id="Shape" fill="#34E3FD"></path>
            <path d="M47.0238095,102.511905 C47.0238095,107.214286 50.7857143,110.97619 55.4880952,110.97619 C60.1904762,110.97619 63.952381,107.214286 63.952381,102.511905 C63.952381,97.8095238 60.1904762,94.047619 55.4880952,94.047619 C50.7857143,94.047619 47.0238095,97.8095238 47.0238095,102.511905 Z M69.5952381,125.083333 C69.5952381,129.785714 73.3571429,133.547619 78.0595238,133.547619 C82.7619048,133.547619 86.5238095,129.785714 86.5238095,125.083333 C86.5238095,120.380952 82.7619048,116.619048 78.0595238,116.619048 C73.3571429,116.619048 69.5952381,120.380952 69.5952381,125.083333 Z M94.047619,149.535714 C94.047619,154.238095 97.8095238,158 102.511905,158 C107.214286,158 110.97619,154.238095 110.97619,149.535714 C110.97619,144.833333 107.214286,141.071429 102.511905,141.071429 C97.8095238,141.071429 94.047619,144.833333 94.047619,149.535714 Z M24.452381,125.083333 C24.452381,129.785714 28.2142857,133.547619 32.9166667,133.547619 C37.6190476,133.547619 41.3809524,129.785714 41.3809524,125.083333 C41.3809524,120.380952 37.6190476,116.619048 32.9166667,116.619048 C28.2142857,116.619048 24.452381,120.380952 24.452381,125.083333 Z M47.0238095,149.535714 C47.0238095,154.238095 50.7857143,158 55.4880952,158 C60.1904762,158 63.952381,154.238095 63.952381,149.535714 C63.952381,144.833333 60.1904762,141.071429 55.4880952,141.071429 C50.7857143,141.071429 47.0238095,144.833333 47.0238095,149.535714 Z M6.68248525e-15,149.535714 C6.68248525e-15,154.238095 3.76190476,158 8.46428571,158 C13.1666667,158 16.9285714,154.238095 16.9285714,149.535714 C16.9285714,144.833333 13.1666667,141.071429 8.46428571,141.071429 C3.76190476,141.071429 6.68248525e-15,144.833333 6.68248525e-15,149.535714 Z" id="Shape" fill="#5B94FC"></path>
            <path d="M1.88095238,9.4047619 C1.88095238,13.5428571 5.26666667,16.9285714 9.4047619,16.9285714 C13.5428571,16.9285714 16.9285714,13.5428571 16.9285714,9.4047619 C16.9285714,5.26666667 13.5428571,1.88095238 9.4047619,1.88095238 C5.26666667,1.88095238 1.88095238,5.26666667 1.88095238,9.4047619 Z M24.452381,32.9166667 C24.452381,37.6190476 28.2142857,41.3809524 32.9166667,41.3809524 C37.6190476,41.3809524 41.3809524,37.6190476 41.3809524,32.9166667 C41.3809524,28.2142857 37.6190476,24.452381 32.9166667,24.452381 C28.2142857,24.452381 24.452381,28.2142857 24.452381,32.9166667 Z M47.0238095,55.4880952 C47.0238095,60.1904762 50.7857143,63.952381 55.4880952,63.952381 C60.1904762,63.952381 63.952381,60.1904762 63.952381,55.4880952 C63.952381,50.7857143 60.1904762,47.0238095 55.4880952,47.0238095 C50.7857143,47.0238095 47.0238095,50.7857143 47.0238095,55.4880952 Z M67.7142857,79 C67.7142857,85.2071429 72.7928571,90.2857143 79,90.2857143 C85.2071429,90.2857143 90.2857143,85.2071429 90.2857143,79 C90.2857143,72.7928571 85.2071429,67.7142857 79,67.7142857 C72.7928571,67.7142857 67.7142857,72.7928571 67.7142857,79 Z M90.2857143,101.571429 C90.2857143,107.778571 95.3642857,112.857143 101.571429,112.857143 C107.778571,112.857143 112.857143,107.778571 112.857143,101.571429 C112.857143,95.3642857 107.778571,90.2857143 101.571429,90.2857143 C95.3642857,90.2857143 90.2857143,95.3642857 90.2857143,101.571429 L90.2857143,101.571429 Z M112.857143,125.083333 C112.857143,131.854762 118.311905,137.309524 125.083333,137.309524 C131.854762,137.309524 137.309524,131.854762 137.309524,125.083333 C137.309524,118.311905 131.854762,112.857143 125.083333,112.857143 C118.311905,112.857143 112.857143,118.311905 112.857143,125.083333 L112.857143,125.083333 Z" id="Shape" fill="#DDE4ED"></path>
        </g>
    </g>
</svg>