<?xml version="1.0" encoding="UTF-8"?>
<svg width="304px" height="159px" viewBox="0 0 304 159" version="1.1" xmlns="http://www.w3.org/2000/svg" xmlns:xlink="http://www.w3.org/1999/xlink">
    <title>spark</title>
    <g id="Page-1" stroke="none" stroke-width="1" fill="none" fill-rule="evenodd">
        <g id="spark" transform="translate(0.333333, 0.666862)" fill-rule="nonzero">
            <path d="M44.4034481,83.9034483 L56.1172411,74.3689654 C52.1909744,67.395784 44.7779624,63.1150306 36.775862,63.2000001 C29.0251499,63.2477924 21.7131808,66.8036128 16.8896549,72.8706897 C11.713793,79 12.2586204,87.4448275 12.2586207,88.9431035 C13.0285934,91.6333832 14.1749917,94.2013155 15.6637929,96.5706896 C17.7068963,99.2948275 30.6465514,112.77931 33.0982758,115.367241 C33.0982758,115.367241 35.9586206,122.994827 32.4172411,125.855172 C29.6490972,128.230289 26.1215748,129.534989 22.4741379,129.532758 C22.4741379,129.532758 13.8931034,127.081034 13.8931034,119.044828 L0,126.672414 C0,126.672414 2.17931045,142.336207 20.1586204,142.336207 C38.1379305,142.336207 41.67931,133.482759 41.6793103,133.482759 C41.6793106,133.482759 48.489655,126.672414 48.489655,117.001724 C48.489655,117.001724 50.5327584,108.965517 38.6827585,97.387931 C38.6827585,97.387931 26.8327585,88.2620688 26.8327585,81.8603448 C26.8327585,81.8603448 28.0586205,75.0500001 34.8689653,76.2758622 C41.67931,77.5017242 44.4034481,83.9034483 44.4034481,83.9034483 L44.4034481,83.9034483 Z M86.7637928,83.3586206 C86.7637928,83.3586206 61.7017237,81.5879308 55.027586,107.331035 C50.5327584,125.174138 47.9448273,158 47.9448273,158 L60.339655,158 L62.6551721,136.887931 C62.6551721,136.887931 80.6344824,149.827586 101.337931,133.755172 C110.736207,123.675862 111.00862,118.091379 112.506896,112.643104 C113.868965,102.7 109.374138,83.9034483 86.7637928,83.2224139 L86.7637928,83.3586206 Z M81.5879308,129.260345 C73.0122818,129.260345 66.0603446,122.308408 66.0603446,113.732759 C66.0603446,104.743103 76.4120689,96.0258619 84.5844826,96.0258619 C93.1068456,96.1750606 99.9157298,103.166326 99.8396548,111.689655 C99.8396548,120.67931 89.7603446,129.124138 81.5879308,129.124138 L81.5879308,129.260345 Z M172.846551,140.293103 L161.132758,140.293103 L163.856896,116.593103 C163.856896,116.593103 165.355172,95.4810346 149.418965,95.4810346 C133.482758,95.4810346 130.622414,112.506897 130.622414,112.506897 C130.622414,112.506897 129.941379,126.672414 141.518965,129.260345 C148.033709,130.897125 154.896221,128.484523 158.953448,123.131034 L156.365517,138.386207 C156.365517,138.386207 140.42931,148.32931 124.356896,134.027586 C124.356896,134.027586 117.682758,128.034483 117.682758,114.55 C117.682758,114.55 117.001724,102.018966 129.668965,91.3948277 C142.336206,80.7706898 153.777586,83.2224139 153.777586,83.2224139 C153.777586,83.2224139 169.305172,83.0862069 176.660344,102.7 C176.962154,106.462348 176.962154,110.242824 176.660344,114.005172 C176.660344,115.503448 172.710344,140.156896 172.710344,140.156896 L172.846551,140.293103 Z M211.393103,84.9931033 L209.894827,96.9793103 L201.722413,96.9793103 C199.69139,97.4672706 198.048689,98.9559681 197.363793,100.92931 L191.915517,140.156896 L179.793103,140.156896 L184.424137,101.065517 C184.424137,101.065517 184.151724,95.3448276 190.00862,89.6241379 C190.00862,89.6241379 194.094827,85.1293103 198.589655,84.9931033 L211.393103,84.9931033 Z M219.701724,75.1862068 L210.984482,140.156896 L224.605172,140.156896 L228.827586,110.327586 L249.667241,140.156896 L265.603448,140.156896 L239.860345,104.334483 L255.524137,87.1724138 L253.20862,73.687931 L230.598275,98.4775861 L234.275862,64.8344829 L219.701724,75.1862068 L219.701724,75.1862068 Z" id="Shape" fill="#414042"></path>
            <path d="M257.294827,74.2327587 L277.589655,79.9534484 L265.467241,55.9810344 L283.855172,33.3706898 L256.341379,40.0448275 L242.856896,17.7068966 L237.40862,45.6293105 L209.894827,55.0275863 L230.189655,63.7448275 L216.432758,73.0068967 L200.087931,66.060345 C200.087931,66.060345 191.098275,61.9741381 191.098275,55.0275863 C191.098275,48.0810346 200.224138,45.4931035 200.224138,45.4931035 L227.465517,37.048276 L231.960344,10.6241379 C231.960344,10.6241379 234.139655,0 241.35862,0 C248.577586,0 251.574137,8.44482747 255.251724,13.8931034 L262.743103,26.5603448 L289.712069,19.4775864 C289.712069,19.4775864 311.913793,14.8465518 298.701724,33.6431035 L279.496551,56.1172414 L290.801724,78.3189656 C290.801724,78.3189656 299.655172,96.2982759 278.815517,93.9827585 L259.201724,87.7172415 L257.022413,74.2327587 L257.294827,74.2327587 Z" id="Path" fill="#E06A1A"></path>
        </g>
    </g>
</svg>