<?xml version="1.0" encoding="UTF-8"?>
<svg width="108px" height="158px" viewBox="0 0 108 158" version="1.1" xmlns="http://www.w3.org/2000/svg" xmlns:xlink="http://www.w3.org/1999/xlink">
    <title>trino</title>
    <g id="Page-1" stroke="none" stroke-width="1" fill="none" fill-rule="evenodd">
        <g id="trino" transform="translate(0.587654, 0.000203)" fill-rule="nonzero">
            <path d="M36.0430977,140.130318 C38.3717248,138.586337 32.2717343,139.168494 31.7655109,138.130736 C29.3505165,137.929231 26.960362,137.496969 24.6277627,136.839867 C20.2489312,135.726176 9.871354,128.714983 8.78297399,122.134081 C7.69459397,115.553178 8.78297399,102.77104 13.414917,95.2789354 C16.3733175,90.6880084 20.178675,86.7022615 24.6277627,83.5345553 C24.6277627,83.5345553 15.5916772,62.045377 14.807031,45.8209209 C14.0223848,29.5964647 15.1866985,0.539248237 25.918632,0.00771387606 C36.6505655,-0.523820485 34.7522283,26.5338138 33.0563803,44.1250729 C31.9683125,55.8126556 31.7905988,67.5671458 32.5248458,79.2822797 C37.0373957,77.8390379 41.7346493,77.0547415 46.4712973,76.9536527 C50.6366361,76.858945 54.7988323,77.2496818 58.8737678,78.1179663 C58.8737678,78.1179663 62.2148414,53.1611584 73.4023759,37.6201037 C84.5899105,22.0790489 96.1824236,6.08239317 103.775773,10.6130916 C111.369122,15.1437901 101.725569,31.3429351 95.01811,39.7715525 C88.3106515,48.20017 76.667516,60.8557523 72.794908,67.6138332 C70.2604031,72.112999 68.0198961,76.7715626 66.0874495,81.5602846 C72.9963768,85.1099101 78.6503484,90.6932072 82.2865945,97.5569403 C87.5260054,108.390118 88.0322287,121.830347 85.1973783,127.500047 C82.206984,132.820062 77.0019722,136.5313 70.9978154,137.624513 C67.6567417,137.877625 53.507801,141.370565 53.507801,141.370565 L36.0430977,140.130318 Z" id="Path" fill="#FFFFFF"></path>
            <path d="M60.7467938,78.3204555 C60.7467938,78.3204555 69.1754114,56.2997428 76.7434495,43.8972724 C84.3114877,31.4948019 94.4612643,22.1549825 97.6504711,24.0533197 C100.839678,25.9516569 91.1201907,37.5947924 82.6662619,48.9088829 C75.724132,58.9308686 69.4339721,69.3891049 63.8347559,80.2187929 L60.7467938,78.3204555 Z M26.9310786,82.1171301 L29.3356392,80.2187929 C29.3356392,80.2187929 29.0065941,58.1980801 29.3356392,44.7831631 C29.6646843,31.3682461 30.3733969,14.6375668 25.8933209,14.8147449 C21.4132448,14.991923 18.2999716,27.8499944 20.046442,46.149966 C21.3378,58.3095129 23.6406543,70.3402334 26.9310786,82.1171301 L26.9310786,82.1171301 Z" id="Shape" fill="#DD00A1"></path>
            <path d="M14.4526747,124.462708 C14.4523637,126.21722 15.3882061,127.838589 16.9076063,128.715935 C18.4270065,129.593281 20.2990746,129.593281 21.8184748,128.715935 C23.337875,127.838589 24.2737174,126.21722 24.2734064,124.462708 C24.2737174,122.708196 23.337875,121.086826 21.8184748,120.20948 C20.2990746,119.332135 18.4270065,119.332135 16.9076063,120.20948 C15.3882061,121.086826 14.4523637,122.708196 14.4526747,124.462708 L14.4526747,124.462708 Z" id="Path" fill="#F9D8D2"></path>
            <path d="M72.4658627,124.462708 C72.4658627,126.217012 73.4017731,127.838057 74.9210456,128.715209 C76.4403181,129.592362 78.3121391,129.592362 79.8314116,128.715209 C81.3506842,127.838057 82.2865945,126.217012 82.2865945,124.462708 C82.2865945,122.708403 81.3506842,121.087358 79.8314116,120.210206 C78.3121391,119.333053 76.4403181,119.333053 74.9210456,120.210206 C73.4017731,121.087358 72.4658627,122.708403 72.4658627,124.462708 L72.4658627,124.462708 Z" id="Path" fill="#F9D8D2"></path>
            <path d="M56.5198295,124.032418 C56.3386078,123.874108 56.068272,123.874108 55.8870504,124.032418 C55.8870504,124.032418 54.444314,126.563534 52.3181762,126.715401 C50.864116,126.666598 49.4929005,126.026697 48.5215015,124.94362 L48.5215015,121.501302 C49.8883044,120.767278 52.0903757,118.489273 52.0903757,117.704627 C51.7024574,115.958601 50.0741717,114.77538 48.2937011,114.94571 C45.7625847,114.94571 43.9908032,116.590936 43.9908032,117.957739 C43.9908032,119.324541 46.7750313,121.071012 47.5596774,121.602546 L47.5596774,125.272665 C46.7733124,126.314369 45.5717673,126.961355 44.269226,127.044446 C42.2443328,127.044446 40.725663,124.310841 40.725663,124.285529 C40.6027508,124.059766 40.3240292,123.970575 40.0928839,124.08304 C39.8844482,124.195062 39.796468,124.448005 39.8903947,124.665197 C39.8903947,124.817064 41.6874873,127.930337 44.269226,127.930337 C45.7339678,127.880615 47.1109277,127.219674 48.0659006,126.107933 C49.1356509,127.196186 50.5677894,127.853709 52.0903757,127.955648 L52.4447321,127.955648 C54.2894052,127.604539 55.8785666,126.442871 56.772941,124.791753 C56.9433077,124.615228 56.9433077,124.335498 56.772941,124.158974 C56.6997099,124.097451 56.6129864,124.054089 56.5198295,124.032418 L56.5198295,124.032418 Z" id="Path" fill="#10110E"></path>
            <path d="M24.6277627,83.5345553 C24.6277627,83.5345553 17.717815,65.8167405 16.2497674,56.4262986 C14.7817199,47.0358567 13.718651,31.6719802 15.4904325,21.3703364 C16.202116,16.5964964 17.2080415,11.8711827 18.502461,7.22139561 C18.502461,7.22139561 15.1866985,31.2416903 16.4269455,41.7458235 C17.6671925,52.2499567 24.6277627,83.5345553 24.6277627,83.5345553 Z M58.8737678,78.0926551 C58.8737678,78.0926551 63.9360006,51.2881324 71.3015493,40.7333769 C78.667098,30.1786214 87.905673,17.4724171 92.4363713,14.2325881 L97.0430032,10.992759 C97.0430032,10.992759 78.4646086,30.3811108 71.3015493,46.4283888 C64.13849,62.4756668 58.8737678,78.0926551 58.8737678,78.0926551 Z" id="Shape" fill="#E5E5E5"></path>
            <path d="M29.3609503,108.466052 C27.8048639,108.466052 26.4019998,109.403416 25.8065114,110.841052 C25.2110229,112.278689 25.5401813,113.93348 26.6405006,115.033799 C27.7408198,116.134118 29.3956109,116.463276 30.8332472,115.867788 C32.2708836,115.272299 33.2082473,113.869435 33.2082473,112.313349 C33.2084295,110.208159 31.5165806,108.493752 29.4115727,108.466052 L29.3609503,108.466052 Z M30.3733969,112.034926 C29.7862802,112.034926 29.310328,111.558974 29.310328,110.971857 C29.310328,110.38474 29.7862802,109.908788 30.3733969,109.908788 C30.9605136,109.908788 31.4364658,110.38474 31.4364658,110.971857 C31.4432593,111.253823 31.3377225,111.526931 31.1430882,111.73106 C30.948454,111.935189 30.6806779,112.053604 30.398708,112.060237 L30.3733969,112.034926 Z M67.2011406,108.466052 C65.0764045,108.45212 63.3426626,110.163248 63.3286994,112.287984 C63.3147362,114.412719 65.0258394,116.146486 67.1505751,116.16048 C69.2753108,116.174474 71.0091021,114.463396 71.0231265,112.33866 C71.0298615,111.318287 70.6309676,110.337032 69.9142015,109.610773 C69.1974353,108.884513 68.2215141,108.472743 67.2011406,108.466052 L67.2011406,108.466052 Z M68.3401431,112.034926 C68.0581771,112.04172 67.7850688,111.936183 67.5809402,111.741548 C67.3768115,111.546914 67.2583965,111.279138 67.2517623,110.997168 C67.2511332,110.415299 67.7082812,109.935852 68.2895207,109.908788 C68.5714867,109.901995 68.844595,110.007532 69.0487236,110.202166 C69.2528522,110.3968 69.3712672,110.664576 69.3779008,110.946546 C69.3846962,111.2218 69.2818268,111.488471 69.0919389,111.687853 C68.902051,111.887235 68.6407118,112.002983 68.3654542,112.009615 L68.3401431,112.034926 Z" id="Shape" fill="#10110E"></path>
            <path d="M13.3136723,113.781396 C13.3136723,127.98403 29.2920661,139.497539 49.0024137,139.497539 C68.7127613,139.497539 84.6911551,127.98403 84.6911551,113.781396 C84.6911551,99.5787629 68.7127613,88.0652536 49.0024137,88.0652536 C29.2920661,88.0652536 13.3136723,99.5787629 13.3136723,113.781396 Z" id="Path" fill="#8ACCCE" opacity="0.2"></path>
            <path d="M92.2085707,99.4805886 L92.2085707,82.4714865 C94.9408775,81.8475981 96.9196491,79.4751443 97.0430032,76.6752299 C96.6787238,73.2660699 93.8020783,70.6804275 90.3735114,70.6804275 C86.9449444,70.6804275 84.068299,73.2660699 83.7040196,76.6752299 C83.8502925,79.4833966 85.8462611,81.8516703 88.5890743,82.4714865 L88.5890743,99.050299 L88.0828511,99.050299 C83.0206182,81.4843512 68.0617203,70.4993059 48.5215015,70.4993059 C28.9812828,70.4993059 13.9464514,81.3831065 8.98546324,99.050299 L7.2896153,99.050299 C3.48620206,98.876912 0.244356317,101.781065 0,105.580579 L0,118.590518 C0.21781151,122.406526 3.47196831,125.333007 7.2896153,125.146109 L9.59293117,125.146109 C11.5259052,130.131728 14.6447956,134.571151 18.6796391,138.080114 L15.4144989,141.04152 C15.0148326,141.380366 14.7662584,141.86419 14.7235305,142.38642 C14.6808027,142.908649 14.8474262,143.426444 15.1866985,143.825748 C22.6028697,152.760589 34.7269173,158 48.420257,158 C62.1135967,158 74.2629556,152.937767 81.6791265,143.825748 C82.3884225,142.985843 82.2866682,141.730873 81.451326,141.016209 L78.1608747,138.00418 C82.1856859,134.516653 85.3038498,130.10432 87.2475826,125.146109 L89.778699,125.146109 C93.6010971,125.332448 96.8520055,122.387375 97.0430032,118.565206 L97.0430032,105.580579 C96.9517195,102.704112 94.9881395,100.226506 92.2085707,99.4805886 L92.2085707,99.4805886 Z M48.5215015,89.3561231 C66.5936727,89.3561231 81.2741479,101.25237 81.2741479,115.856912 C81.2741479,131.676389 64.7965801,138.63696 48.5215015,138.63696 C32.246423,138.63696 15.7688552,131.625767 15.7688552,115.730356 C15.7688552,101.25237 30.3733969,89.2295673 48.5215015,89.2295673 L48.5215015,89.3561231 Z" id="Shape" fill="#FFFFFF"></path>
            <path d="M93.4235066,114.312931 L88.5890743,114.312931 L88.5890743,111.781815 C88.5890834,108.55882 88.2583052,105.344335 87.6019389,102.188883 L89.6774543,102.188883 C91.5568367,102.058445 93.1872347,103.473721 93.3222621,105.352779 L93.4235066,114.312931 Z M89.778699,121.956902 L87.2475826,121.956902 C87.7282452,120.144223 88.0834426,118.300579 88.3106515,116.439069 L93.3728843,116.439069 L93.3728843,118.590518 C93.3595582,119.490083 92.9893751,120.3475 92.3437932,120.974094 C91.6982112,121.600688 90.8301289,121.945118 89.930566,121.931591 L89.778699,121.931591 L89.778699,121.956902 Z M48.5215015,154.658926 C36.3974539,154.658926 25.5895869,150.305406 18.806195,142.56019 L22.0966463,139.497539 C29.8751925,144.689107 39.0717209,147.341952 48.420257,147.090888 C57.771788,147.365526 66.9753422,144.710654 74.7438676,139.497539 L78.1608747,142.56019 C71.4534163,150.305406 60.7467938,154.658926 48.5215015,154.658926 Z M7.2896153,102.315439 L9.44106419,102.315439 C8.80541968,105.47362 8.48324791,108.686859 8.47924002,111.90837 C8.42861263,112.751316 8.42861263,113.596541 8.47924002,114.439487 L3.77136342,114.439487 L3.77136342,105.580579 C3.74306558,103.814848 5.14447755,102.356928 6.90994777,102.315439 L7.2896153,102.315439 Z" id="Shape" fill="#515151"></path>
            <path d="M48.5215015,87.0528071 C44.4191569,87.0758483 40.3395119,87.6635216 36.3974539,88.7992774 L36.3974539,75.5615387 C40.3426356,74.4546876 44.4241199,73.9093536 48.5215015,73.9416242 C52.6272057,73.9093302 56.7170483,74.4546425 60.6708604,75.5615387 L60.6708604,88.875211 C56.7381153,87.6499439 52.640659,87.0353254 48.5215015,87.0528071 L48.5215015,87.0528071 Z" id="Path" fill="#000000"></path>
            <path d="M3.64480757,116.439069 L8.70704042,116.439069 C8.95508039,118.282451 9.31858855,120.108445 9.79542059,121.90628 L7.26430416,121.90628 C5.38492177,122.036719 3.75452374,120.621443 3.61949644,118.742385 L3.61949644,116.439069 L3.64480757,116.439069 Z" id="Path" fill="#515151"></path>
            <path d="M87.3488273,76.6752299 C87.3488273,78.1849586 88.7086906,79.4088355 90.386167,79.4088355 C92.0636433,79.4088355 93.4235066,78.1849586 93.4235066,76.6752299 C93.4235066,75.1655011 92.0636433,73.9416242 90.386167,73.9416242 C88.7086906,73.9416242 87.3488273,75.1655011 87.3488273,76.6752299 L87.3488273,76.6752299 Z" id="Path" fill="#515151"></path>
        </g>
    </g>
</svg>