<?xml version="1.0" encoding="UTF-8"?>
<svg width="200px" height="159px" viewBox="0 0 200 159" version="1.1" xmlns="http://www.w3.org/2000/svg" xmlns:xlink="http://www.w3.org/1999/xlink">
    <title>yugabyte</title>
    <g id="Page-1" stroke="none" stroke-width="1" fill="none" fill-rule="evenodd">
        <g id="yugabyte" transform="translate(0.000000, 0.000130)" fill-rule="nonzero">
            <path d="M156.55268,23.160236 C141.757968,8.28165904 121.624842,-0.0580421418 100.642836,0.0003041026 L100.642836,0.0003041026 C79.6608296,-0.0580421418 59.527704,8.28165904 44.7329919,23.160236 C29.853252,37.9559251 21.5134755,58.0911903 21.5736646,79.074592 C21.5598964,88.7755546 23.3403598,98.3951177 26.8250967,107.44814 C21.6904613,112.533517 16.8217465,117.880303 12.2383021,123.467566 C9.43499555,126.895649 6.85286312,130.498159 4.50769633,134.254166 C3.26849789,136.22636 2.20690856,138.304141 1.33544061,140.463787 C0.843210718,141.664779 0.470842784,142.910889 0.223753836,144.184908 C-0.107206394,145.748709 -0.0705840502,147.368327 0.330736066,148.915383 C0.430064881,149.300054 0.570410681,149.672631 0.749364045,150.027068 L0.860997677,150.264289 C0.903023088,150.352201 0.949602221,150.437322 1.00053972,150.520117 C1.23667276,150.930835 1.51242178,151.316902 1.82383775,151.673664 C2.51772915,152.469054 3.37639645,153.10397 4.34024588,153.534225 C5.81146088,154.152861 7.39610029,154.455202 8.99162397,154.422642 C11.4713325,154.344964 13.929226,153.93378 16.2989755,153.199324 C20.607336,151.889489 24.806435,150.243823 28.8577591,148.278141 C35.3336261,145.12263 41.6444614,141.638731 47.7657055,137.840396 C62.2678446,150.937347 81.1209045,158.175393 100.661441,158.148997 L100.661441,158.148997 C121.642983,158.205627 141.775643,149.86613 156.571286,134.989087 C171.449723,120.192515 179.78922,100.057994 179.731223,79.074592 C179.785965,58.0883994 171.43949,37.9528552 156.55268,23.160236 L156.55268,23.160236 Z M28.508904,111.508814 C31.8865191,119.021757 36.4226122,125.957461 41.9514539,132.063356 C35.9697517,135.72866 30.5508692,138.761374 25.4389791,141.310342 L25.4389791,141.310342 C21.804002,143.187182 18.0298549,144.781218 14.1500281,146.078028 C12.4185439,146.66457 10.6195679,147.028775 8.79626512,147.161805 C8.25312098,147.206923 7.70634875,147.153432 7.18222885,147.003657 C7.07524662,146.957143 7.01942981,146.924583 7.010127,146.924583 C6.99175397,146.902722 6.97463681,146.879 6.95896159,146.854812 C6.85035137,146.344554 6.85035137,145.81662 6.95896159,145.305896 C7.09296846,144.453759 7.31111918,143.617437 7.61015778,142.808093 C8.28623896,140.958696 9.1042344,139.164185 10.0567949,137.440376 C12.0662468,133.783444 14.3000823,130.253961 16.74551,126.872392 C20.303832,121.802365 24.0761185,116.97421 28.5042991,111.508814 L28.508904,111.508814 Z M73.1251456,120.72324 C81.2744007,114.704326 87.7956654,109.666859 93.6378255,104.866612 C100.070714,99.6477401 106.69896,93.9869847 113.359767,88.009934 L114.201671,87.2238471 C120.113602,81.6979823 126.225543,75.9767587 132.109566,70.2183238 C132.744017,69.5866635 132.784484,68.5731232 132.202594,67.8926232 C131.606749,67.2191003 130.592279,67.1200254 129.876893,67.6647045 C123.397491,72.6742637 116.950649,77.8977874 110.717771,82.9213009 L109.703766,83.7399475 C103.894165,88.3448349 97.6101222,93.1776408 89.367839,99.3965644 L88.6236148,99.9500812 C82.111653,104.778236 75.3857266,109.773841 68.6225891,114.471756 C61.0128965,119.820868 54.6916421,124.0769 48.849482,127.779415 C36.4242867,114.620136 29.5188628,97.1964516 29.5549965,79.097849 C29.5065831,60.2336257 37.0049211,42.1335347 50.379793,28.8302943 C63.6828009,15.4550037 81.783264,7.9565726 100.647487,8.00546297 C119.511245,7.95531673 137.611709,15.4520268 150.915182,28.8256429 C164.287495,42.1302322 171.784159,60.2299046 171.735344,79.0931976 C171.784624,97.9583511 164.288426,116.059745 150.915182,129.365543 C137.611243,142.739252 119.511245,150.237311 100.647487,150.190312 C83.8563936,150.20103 67.6053276,144.256074 54.7846701,133.412262 C61.0221993,129.305075 67.1853061,125.053694 73.1204942,120.72324 L73.1251456,120.72324 Z" id="Path_11" fill="#322965"></path>
            <path d="M199.996792,5.28491233 C199.996792,5.28491233 181.060937,2.26150147 174.739682,7.75480644 L163.14839,17.8297324 L162.073917,18.7600127 L161.529703,19.2251528 C161.529703,19.2251528 141.751944,17.9134577 137.472655,21.6299273 L133.067778,25.462682 L133.067778,25.462682 L131.435136,26.8581024 L129.672255,28.3930649 L129.207115,28.7837826 L138.370375,39.323858 C135.542323,41.7797979 137.570334,48.7429457 142.90084,54.8736787 C148.231346,61.0042257 154.840988,63.9811226 157.66904,61.5205313 L166.8323,72.0606067 L167.116036,71.8140824 L170.679009,68.7162491 L170.679009,68.7162491 L175.083886,64.8834944 C179.363175,61.1623734 180.814413,41.398383 180.814413,41.398383 L181.912143,40.4448457 L182.805212,39.6727131 L194.029044,29.9047703 C200.336344,24.4672821 199.996792,5.28491233 199.996792,5.28491233 Z M142.993868,35.3469099 L143.635762,34.7887417 L142.993868,35.3469099 Z M178.344518,43.589193 L177.721231,44.1287556 L178.344518,43.589193 Z" id="Path_12" fill="#ED5735"></path>
        </g>
    </g>
</svg>